<svg width="149" height="43" viewBox="0 0 149 43" fill="none" xmlns="http://www.w3.org/2000/svg">
<g id="Group">
<path id="BG" d="M148.172 38.041C148.172 40.3325 146.275 42.1887 143.929 42.1887H5.07627C2.73123 42.1887 0.827759 40.3325 0.827759 38.041V4.96445C0.827759 2.67401 2.73123 0.81134 5.07627 0.81134H143.928C146.275 0.81134 148.171 2.67401 148.171 4.96445L148.172 38.041Z" fill="#111111"/>
<path id="Border" d="M143.481 0.861347C146.037 0.861347 148.116 2.88638 148.116 5.375V37.625C148.116 40.1136 146.037 42.1387 143.481 42.1387H5.51852C2.96344 42.1387 0.884342 40.1136 0.884342 37.625V5.375C0.884342 2.88638 2.96344 0.861347 5.51852 0.861347H143.481ZM143.481 3.8147e-06H5.51852C2.48471 3.8147e-06 0 2.4201 0 5.375V37.625C0 40.5799 2.48471 43 5.51852 43H143.481C146.515 43 149 40.5799 149 37.625V5.375C149 2.4201 146.515 3.8147e-06 143.481 3.8147e-06Z" fill="url(#paint0_linear_368_166)"/>
<g id="Icon">
<g id="Vector">
<path d="M33.2524 21.2678C33.2204 17.8031 36.1651 16.1175 36.2997 16.039C34.632 13.6708 32.0471 13.3472 31.1388 13.3214C28.9678 13.0989 26.8619 14.5867 25.756 14.5867C24.628 14.5867 22.925 13.3429 21.0896 13.3795C18.7276 13.4149 16.518 14.7469 15.3062 16.8152C12.8052 21.0324 14.6704 27.2298 17.0666 30.6386C18.2652 32.3081 19.6658 34.1721 21.499 34.1065C23.2926 34.0345 23.9625 32.9928 26.1269 32.9928C28.2714 32.9928 28.9005 34.1065 30.7702 34.0646C32.695 34.0345 33.9069 32.3876 35.0636 30.7031C36.4487 28.7896 37.005 26.9051 37.0271 26.8084C36.9818 26.7933 33.2888 25.4205 33.2524 21.2678Z" fill="white"/>
<path d="M29.7205 11.079C30.6852 9.90399 31.3452 8.30546 31.162 6.68329C29.7658 6.74349 28.0197 7.62391 27.0142 8.77309C26.1247 9.78574 25.33 11.4455 25.5353 13.0064C27.1036 13.1204 28.714 12.2357 29.7205 11.079Z" fill="white"/>
</g>
</g>
<g id="Download on the">
<path id="D" d="M54.1367 10.7597C54.1367 12.0249 53.7471 12.9774 52.969 13.617C52.2483 14.2072 51.224 14.5028 49.8974 14.5028C49.2396 14.5028 48.6767 14.4749 48.2054 14.419V7.50564C48.8201 7.40889 49.4824 7.35944 50.1976 7.35944C51.4613 7.35944 52.4138 7.62711 53.0562 8.16246C53.7758 8.76769 54.1367 9.63306 54.1367 10.7597ZM52.9171 10.7908C52.9171 9.97061 52.6942 9.34174 52.2483 8.90314C51.8024 8.46561 51.1512 8.24631 50.2936 8.24631C49.9294 8.24631 49.6192 8.26996 49.3621 8.31941V13.5751C49.5044 13.5966 49.7649 13.6063 50.1435 13.6063C51.0287 13.6063 51.7119 13.3665 52.1931 12.8871C52.6743 12.4076 52.9171 11.7089 52.9171 10.7908Z" fill="white"/>
<path id="o" d="M60.6033 11.8648C60.6033 12.6441 60.3748 13.2827 59.9179 13.7836C59.4389 14.2986 58.8042 14.5555 58.0118 14.5555C57.248 14.5555 56.6399 14.3093 56.1863 13.8148C55.7337 13.3214 55.5075 12.699 55.5075 11.9486C55.5075 11.1639 55.7404 10.5199 56.2083 10.0201C56.6763 9.52019 57.3054 9.26971 58.0979 9.26971C58.8616 9.26971 59.4753 9.51589 59.94 10.0093C60.3814 10.4888 60.6033 11.108 60.6033 11.8648ZM59.4036 11.9013C59.4036 11.4337 59.2998 11.0327 59.0934 10.6984C58.8506 10.2942 58.5051 10.0921 58.0559 10.0921C57.5913 10.0921 57.2381 10.2942 56.9953 10.6984C56.7878 11.0327 56.6851 11.4401 56.6851 11.9217C56.6851 12.3894 56.7889 12.7903 56.9953 13.1247C57.2458 13.5289 57.5946 13.731 58.0449 13.731C58.4864 13.731 58.8329 13.5256 59.0824 13.1139C59.2965 12.7731 59.4036 12.3689 59.4036 11.9013Z" fill="white"/>
<path id="w" d="M69.274 9.37292L67.646 14.4405H66.5865L65.9121 12.2399C65.741 11.6906 65.602 11.1445 65.4938 10.6027H65.4728C65.3724 11.1596 65.2333 11.7046 65.0545 12.2399L64.3382 14.4405H63.2665L61.7357 9.37292H62.9244L63.5126 11.782C63.655 12.3518 63.772 12.8946 63.8658 13.4085H63.8868C63.9729 12.9849 64.1153 12.4453 64.3161 11.7928L65.0545 9.374H65.9971L66.7046 11.7411C66.8756 12.3184 67.0147 12.8742 67.1218 13.4096H67.1538C67.2321 12.8882 67.3502 12.3324 67.507 11.7411L68.1383 9.374H69.274V9.37292Z" fill="white"/>
<path id="n" d="M75.2704 14.4405H74.1137V11.538C74.1137 10.6436 73.7649 10.1964 73.0652 10.1964C72.7219 10.1964 72.4449 10.3189 72.2297 10.5651C72.0167 10.8113 71.9085 11.1015 71.9085 11.4337V14.4394H70.7518V10.8209C70.7518 10.3759 70.7375 9.8932 70.7099 9.37075H71.7264L71.7805 10.163H71.8125C71.9472 9.91686 72.148 9.71368 72.4118 9.55135C72.7253 9.36215 73.0762 9.26648 73.4603 9.26648C73.9459 9.26648 74.3499 9.41913 74.6711 9.7255C75.0706 10.1007 75.2704 10.6608 75.2704 11.4047V14.4405Z" fill="white"/>
<path id="l" d="M78.4601 14.4404H77.3045V7.04767H78.4601V14.4404Z" fill="white"/>
<path id="o_2" d="M85.27 11.8648C85.27 12.6441 85.0415 13.2827 84.5846 13.7836C84.1056 14.2986 83.4698 14.5555 82.6785 14.5555C81.9136 14.5555 81.3055 14.3093 80.8529 13.8148C80.4004 13.3214 80.1742 12.699 80.1742 11.9486C80.1742 11.1639 80.407 10.5199 80.875 10.0201C81.343 9.52019 81.9721 9.26971 82.7635 9.26971C83.5283 9.26971 84.1409 9.51589 84.6066 10.0093C85.0481 10.4888 85.27 11.108 85.27 11.8648ZM84.0691 11.9013C84.0691 11.4337 83.9654 11.0327 83.759 10.6984C83.5173 10.2942 83.1707 10.0921 82.7226 10.0921C82.2569 10.0921 81.9037 10.2942 81.662 10.6984C81.4545 11.0327 81.3518 11.4401 81.3518 11.9217C81.3518 12.3894 81.4556 12.7903 81.662 13.1247C81.9125 13.5289 82.2613 13.731 82.7116 13.731C83.1531 13.731 83.4985 13.5256 83.748 13.1139C83.9632 12.7731 84.0691 12.3689 84.0691 11.9013Z" fill="white"/>
<path id="a" d="M90.8679 14.4405H89.8294L89.7433 13.8567H89.7113C89.3559 14.3222 88.8493 14.5555 88.1915 14.5555C87.7003 14.5555 87.303 14.4018 87.0039 14.0965C86.7324 13.8191 86.5966 13.474 86.5966 13.0645C86.5966 12.4453 86.8615 11.9733 87.3946 11.6465C87.9266 11.3197 88.6749 11.1596 89.6384 11.1671V11.0725C89.6384 10.4049 89.2786 10.0717 88.5579 10.0717C88.0447 10.0717 87.5922 10.1974 87.2015 10.4468L86.9664 9.70724C87.4498 9.41591 88.0469 9.26971 88.751 9.26971C90.1108 9.26971 90.7929 9.96846 90.7929 11.366V13.2322C90.7929 13.7385 90.8183 14.1416 90.8679 14.4405ZM89.6671 12.699V11.9174C88.3912 11.8959 87.7533 12.2367 87.7533 12.9387C87.7533 13.2031 87.8261 13.4009 87.9751 13.5332C88.1241 13.6654 88.314 13.731 88.5402 13.731C88.7941 13.731 89.0314 13.6525 89.2477 13.4966C89.4651 13.3397 89.5987 13.1408 89.6484 12.8968C89.6605 12.8419 89.6671 12.7753 89.6671 12.699Z" fill="white"/>
<path id="d" d="M97.4405 14.4404H96.4141L96.36 13.6267H96.328C96.0002 14.2459 95.4417 14.5555 94.657 14.5555C94.0301 14.5555 93.508 14.3157 93.0941 13.8363C92.6802 13.3568 92.4738 12.7344 92.4738 11.9701C92.4738 11.1499 92.6979 10.4855 93.1482 9.97812C93.5842 9.50512 94.1184 9.26862 94.7541 9.26862C95.4527 9.26862 95.9417 9.49759 96.2198 9.95662H96.2419V7.04767H97.3997V13.0752C97.3997 13.5686 97.4129 14.0233 97.4405 14.4404ZM96.2419 12.3033V11.4584C96.2419 11.3122 96.2308 11.1939 96.2099 11.1036C96.1448 10.8327 96.0046 10.6048 95.7916 10.421C95.5763 10.2372 95.317 10.1447 95.0179 10.1447C94.5863 10.1447 94.2486 10.3114 94.0003 10.6457C93.7541 10.98 93.6294 11.4068 93.6294 11.9282C93.6294 12.4291 93.7475 12.8355 93.9848 13.1483C94.2354 13.4815 94.5731 13.6482 94.9958 13.6482C95.3755 13.6482 95.679 13.5095 95.9097 13.2311C96.1326 12.9741 96.2419 12.6645 96.2419 12.3033Z" fill="white"/>
<path id="o_3" d="M107.333 11.8648C107.333 12.6441 107.105 13.2827 106.648 13.7836C106.169 14.2986 105.535 14.5555 104.742 14.5555C103.979 14.5555 103.371 14.3093 102.916 13.8148C102.463 13.3214 102.237 12.699 102.237 11.9486C102.237 11.1639 102.47 10.5199 102.938 10.0201C103.406 9.52019 104.035 9.26971 104.829 9.26971C105.591 9.26971 106.206 9.51589 106.67 10.0093C107.111 10.4888 107.333 11.108 107.333 11.8648ZM106.134 11.9013C106.134 11.4337 106.031 11.0327 105.824 10.6984C105.58 10.2942 105.236 10.0921 104.786 10.0921C104.322 10.0921 103.969 10.2942 103.725 10.6984C103.518 11.0327 103.415 11.4401 103.415 11.9217C103.415 12.3894 103.519 12.7903 103.725 13.1247C103.976 13.5289 104.324 13.731 104.775 13.731C105.216 13.731 105.564 13.5256 105.813 13.1139C106.026 12.7731 106.134 12.3689 106.134 11.9013Z" fill="white"/>
<path id="n_2" d="M113.552 14.4405H112.397V11.538C112.397 10.6436 112.048 10.1964 111.347 10.1964C111.004 10.1964 110.727 10.3189 110.513 10.5651C110.299 10.8113 110.192 11.1015 110.192 11.4337V14.4394H109.034V10.8209C109.034 10.3759 109.021 9.8932 108.993 9.37075H110.008L110.062 10.163H110.094C110.23 9.91686 110.431 9.71368 110.694 9.55135C111.008 9.36215 111.358 9.26648 111.743 9.26648C112.228 9.26648 112.632 9.41913 112.953 9.7255C113.354 10.1007 113.552 10.6608 113.552 11.4047V14.4405Z" fill="white"/>
<path id="t" d="M121.337 10.2168H120.063V12.6786C120.063 13.3042 120.289 13.6171 120.738 13.6171C120.945 13.6171 121.117 13.5999 121.253 13.5644L121.283 14.419C121.054 14.5029 120.754 14.5448 120.384 14.5448C119.927 14.5448 119.572 14.4093 119.315 14.1384C119.057 13.8675 118.929 13.4117 118.929 12.7721V10.2168H118.168V9.37295H118.929V8.44415L120.062 8.1109V9.37188H121.336V10.2168H121.337Z" fill="white"/>
<path id="h" d="M127.46 14.4404H126.302V11.5594C126.302 10.6511 125.954 10.1963 125.255 10.1963C124.719 10.1963 124.352 10.4597 124.151 10.9865C124.117 11.0972 124.097 11.2326 124.097 11.3917V14.4394H122.942V7.04767H124.097V10.1017H124.119C124.483 9.54597 125.005 9.26862 125.682 9.26862C126.161 9.26862 126.557 9.42127 126.872 9.72764C127.264 10.1093 127.46 10.6769 127.46 11.4272V14.4404Z" fill="white"/>
<path id="e" d="M133.777 11.6669C133.777 11.869 133.761 12.0389 133.734 12.1776H130.265C130.28 12.6785 130.446 13.0601 130.767 13.3246C131.06 13.5611 131.439 13.6793 131.903 13.6793C132.416 13.6793 132.884 13.5998 133.305 13.4396L133.486 14.2222C132.993 14.4308 132.412 14.535 131.74 14.535C130.935 14.535 130.3 14.3039 129.841 13.8417C129.379 13.3794 129.151 12.7591 129.151 11.9808C129.151 11.2165 129.364 10.5801 129.793 10.0727C130.241 9.53091 130.847 9.26001 131.612 9.26001C132.361 9.26001 132.929 9.53091 133.313 10.0727C133.623 10.5027 133.777 11.0348 133.777 11.6669ZM132.673 11.3756C132.682 11.0413 132.606 10.7532 132.449 10.5102C132.248 10.1974 131.942 10.0405 131.528 10.0405C131.151 10.0405 130.843 10.1931 130.608 10.4995C130.416 10.7435 130.302 11.0348 130.265 11.3756H132.673Z" fill="white"/>
</g>
<g id="App Store">
<path id="A" d="M59.2082 33.8668H56.7017L55.3287 29.6646H50.5563L49.2484 33.8668H46.8081L51.5363 19.5607H54.4567L59.2082 33.8668ZM54.9148 27.9016L53.6731 24.166C53.5418 23.7843 53.2956 22.8856 52.9325 21.4709H52.8884C52.7438 22.0794 52.5109 22.9781 52.1908 24.166L50.9712 27.9016H54.9148Z" fill="white"/>
<path id="p" d="M71.3677 28.5821C71.3677 30.3365 70.881 31.7232 69.9075 32.7412C69.0356 33.6475 67.9528 34.1 66.6604 34.1C65.2653 34.1 64.2631 33.612 63.6528 32.6359H63.6087V38.07H61.2556V26.947C61.2556 25.844 61.2258 24.7121 61.1684 23.5511H63.2378L63.3691 25.1861H63.4133C64.198 23.9542 65.3889 23.3393 66.9871 23.3393C68.2365 23.3393 69.2795 23.8198 70.1139 24.7819C70.9505 25.7451 71.3677 27.0115 71.3677 28.5821ZM68.9704 28.6659C68.9704 27.6619 68.7387 26.8341 68.2729 26.1827C67.7641 25.5033 67.0809 25.1636 66.2244 25.1636C65.6439 25.1636 65.1163 25.3528 64.645 25.7258C64.1726 26.102 63.8636 26.5933 63.719 27.2018C63.6462 27.4856 63.6098 27.7178 63.6098 27.9005V29.6205C63.6098 30.3709 63.8459 31.004 64.3183 31.5211C64.7907 32.0382 65.4044 32.2962 66.1593 32.2962C67.0456 32.2962 67.7354 31.9629 68.2288 31.2986C68.7232 30.6332 68.9704 29.756 68.9704 28.6659Z" fill="white"/>
<path id="p_2" d="M83.5493 28.5821C83.5493 30.3365 83.0625 31.7232 82.088 32.7412C81.2171 33.6475 80.1344 34.1 78.842 34.1C77.4469 34.1 76.4447 33.612 75.8355 32.6359H75.7913V38.07H73.4382V26.947C73.4382 25.844 73.4084 24.7121 73.351 23.5511H75.4205L75.5518 25.1861H75.596C76.3796 23.9542 77.5705 23.3393 79.1698 23.3393C80.4181 23.3393 81.4611 23.8198 82.2977 24.7819C83.131 25.7451 83.5493 27.0115 83.5493 28.5821ZM81.152 28.6659C81.152 27.6619 80.9191 26.8341 80.4534 26.1827C79.9446 25.5033 79.2636 25.1636 78.406 25.1636C77.8244 25.1636 77.2979 25.3528 76.8255 25.7258C76.3531 26.102 76.0452 26.5933 75.9006 27.2018C75.8289 27.4856 75.7913 27.7178 75.7913 27.9005V29.6205C75.7913 30.3709 76.0275 31.004 76.4977 31.5211C76.9701 32.0371 77.5838 32.2962 78.3409 32.2962C79.2272 32.2962 79.917 31.9629 80.4103 31.2986C80.9048 30.6332 81.152 29.756 81.152 28.6659Z" fill="white"/>
<path id="S" d="M97.169 29.8549C97.169 31.0718 96.7352 32.0619 95.8644 32.8262C94.9075 33.6615 93.5753 34.0786 91.8635 34.0786C90.283 34.0786 89.0159 33.7819 88.0568 33.1874L88.602 31.2771C89.6351 31.8856 90.7686 32.1909 92.0036 32.1909C92.8899 32.1909 93.5797 31.9952 94.0753 31.6061C94.5686 31.2169 94.8148 30.6945 94.8148 30.043C94.8148 29.4625 94.6117 28.9734 94.2044 28.5767C93.7994 28.1801 93.1228 27.8113 92.178 27.4706C89.6064 26.5364 88.3217 25.1679 88.3217 23.3684C88.3217 22.1923 88.772 21.228 89.6737 20.4777C90.5721 19.7262 91.7708 19.3511 93.2696 19.3511C94.6062 19.3511 95.7165 19.5779 96.6028 20.0305L96.0145 21.8988C95.1867 21.4602 94.2508 21.2409 93.2034 21.2409C92.3756 21.2409 91.7288 21.4398 91.2653 21.8354C90.8735 22.1891 90.677 22.6202 90.677 23.1308C90.677 23.6962 90.901 24.1639 91.3513 24.5315C91.7432 24.8712 92.4551 25.2389 93.4881 25.6355C94.7519 26.1311 95.6801 26.7105 96.2772 27.3749C96.8721 28.0371 97.169 28.8659 97.169 29.8549Z" fill="white"/>
<path id="t_2" d="M104.949 25.2711H102.355V30.2795C102.355 31.5534 102.812 32.1898 103.728 32.1898C104.149 32.1898 104.498 32.1543 104.773 32.0834L104.839 33.8238C104.375 33.9926 103.765 34.0775 103.009 34.0775C102.079 34.0775 101.353 33.8012 100.829 33.2497C100.307 32.6972 100.044 31.7705 100.044 30.4687V25.2689H98.4989V23.5489H100.044V21.6602L102.355 20.9808V23.5489H104.949V25.2711Z" fill="white"/>
<path id="o_4" d="M116.652 28.624C116.652 30.2096 116.186 31.5115 115.256 32.5295C114.282 33.5776 112.988 34.1001 111.376 34.1001C109.822 34.1001 108.585 33.598 107.662 32.594C106.739 31.5899 106.278 30.3225 106.278 28.7949C106.278 27.1964 106.752 25.8871 107.705 24.869C108.655 23.8499 109.938 23.3404 111.55 23.3404C113.104 23.3404 114.355 23.8424 115.298 24.8475C116.201 25.8226 116.652 27.0814 116.652 28.624ZM114.21 28.6982C114.21 27.7468 114.002 26.9309 113.579 26.2504C113.085 25.427 112.38 25.0163 111.466 25.0163C110.52 25.0163 109.802 25.428 109.309 26.2504C108.886 26.932 108.677 27.7608 108.677 28.7412C108.677 29.6926 108.886 30.5085 109.309 31.1879C109.817 32.0113 110.528 32.422 111.445 32.422C112.344 32.422 113.049 32.0027 113.558 31.1664C113.992 30.473 114.21 29.6485 114.21 28.6982Z" fill="white"/>
<path id="r" d="M124.3 25.5667C124.067 25.5248 123.819 25.5033 123.559 25.5033C122.731 25.5033 122.091 25.8075 121.64 26.417C121.248 26.9545 121.052 27.6339 121.052 28.4541V33.8668H118.7L118.722 26.7997C118.722 25.6108 118.692 24.5282 118.634 23.5521H120.683L120.769 25.5258H120.835C121.083 24.8475 121.475 24.3014 122.011 23.8918C122.535 23.5231 123.102 23.3393 123.712 23.3393C123.929 23.3393 124.126 23.3543 124.3 23.3812V25.5667Z" fill="white"/>
<path id="e_2" d="M134.824 28.2209C134.824 28.6315 134.796 28.9777 134.738 29.2604H127.679C127.706 30.2795 128.047 31.0589 128.703 31.5964C129.298 32.0769 130.067 32.3177 131.012 32.3177C132.057 32.3177 133.011 32.1554 133.868 31.8296L134.237 33.4206C133.235 33.8463 132.052 34.0581 130.686 34.0581C129.044 34.0581 127.755 33.5873 126.817 32.6466C125.881 31.706 125.412 30.4429 125.412 28.8583C125.412 27.3028 125.848 26.0074 126.721 24.9744C127.635 23.8714 128.87 23.3199 130.424 23.3199C131.95 23.3199 133.106 23.8714 133.89 24.9744C134.512 25.8505 134.824 26.9341 134.824 28.2209ZM132.58 27.6264C132.596 26.947 132.442 26.36 132.123 25.8645C131.716 25.227 131.09 24.9088 130.248 24.9088C129.479 24.9088 128.853 25.2195 128.375 25.843C127.983 26.3385 127.75 26.933 127.679 27.6253H132.58V27.6264Z" fill="white"/>
</g>
</g>
<defs>
<linearGradient id="paint0_linear_368_166" x1="0" y1="43" x2="25.4555" y2="-29.6598" gradientUnits="userSpaceOnUse">
<stop stop-color="#D5F00A"/>
<stop offset="1" stop-color="#70C806"/>
</linearGradient>
</defs>
</svg>
