<svg width="123" height="123" viewBox="0 0 123 123" fill="none" xmlns="http://www.w3.org/2000/svg">
<path fill-rule="evenodd" clip-rule="evenodd" d="M41 1.49091C41 1.0955 41.1571 0.716277 41.4367 0.436677C41.7163 0.157077 42.0955 0 42.4909 0L54.4182 0C54.8136 0 55.1928 0.157077 55.4724 0.436677C55.752 0.716277 55.9091 1.0955 55.9091 1.49091V2.23636C55.9091 2.63178 55.752 3.011 55.4724 3.2906C55.1928 3.5702 54.8136 3.72727 54.4182 3.72727H42.4909C42.0955 3.72727 41.7163 3.5702 41.4367 3.2906C41.1571 3.011 41 2.63178 41 2.23636V1.49091ZM63.3636 1.49091C63.3636 1.0955 63.5207 0.716277 63.8003 0.436677C64.0799 0.157077 64.4591 0 64.8545 0L65.6 0C65.9954 0 66.3746 0.157077 66.6542 0.436677C66.9338 0.716277 67.0909 1.0955 67.0909 1.49091V2.23636C67.0909 2.63178 66.9338 3.011 66.6542 3.2906C66.3746 3.5702 65.9954 3.72727 65.6 3.72727H64.8545C64.4591 3.72727 64.0799 3.5702 63.8003 3.2906C63.5207 3.011 63.3636 2.63178 63.3636 2.23636V1.49091ZM70.8182 1.49091C70.8182 1.0955 70.9753 0.716277 71.2549 0.436677C71.5345 0.157077 71.9137 0 72.3091 0L73.0546 0C73.45 0 73.8292 0.157077 74.1088 0.436677C74.3884 0.716277 74.5455 1.0955 74.5455 1.49091V9.69091C74.5455 10.0863 74.3884 10.4655 74.1088 10.7451C73.8292 11.0247 73.45 11.1818 73.0546 11.1818H72.3091C71.9137 11.1818 71.5345 11.3389 71.2549 11.6185C70.9753 11.8981 70.8182 12.2773 70.8182 12.6727V13.4182C70.8182 13.8136 70.6611 14.1928 70.3815 14.4724C70.1019 14.752 69.7227 14.9091 69.3273 14.9091H68.5818C68.1864 14.9091 67.8072 14.752 67.5276 14.4724C67.248 14.1928 67.0909 13.8136 67.0909 13.4182V12.6727C67.0909 12.2773 66.9338 11.8981 66.6542 11.6185C66.3746 11.3389 65.9954 11.1818 65.6 11.1818H64.8545C64.4591 11.1818 64.0799 11.3389 63.8003 11.6185C63.5207 11.8981 63.3636 12.2773 63.3636 12.6727V17.1455C63.3636 17.5409 63.2066 17.9201 62.927 18.1997C62.6474 18.4793 62.2681 18.6364 61.8727 18.6364H61.1273C60.7319 18.6364 60.3526 18.4793 60.073 18.1997C59.7934 17.9201 59.6364 17.5409 59.6364 17.1455V12.6727C59.6364 12.2773 59.4793 11.8981 59.1997 11.6185C58.9201 11.3389 58.5409 11.1818 58.1455 11.1818H57.4C57.0046 11.1818 56.6254 11.3389 56.3458 11.6185C56.0662 11.8981 55.9091 12.2773 55.9091 12.6727V13.4182C55.9091 13.8136 55.752 14.1928 55.4724 14.4724C55.1928 14.752 54.8136 14.9091 54.4182 14.9091H53.6727C53.2773 14.9091 52.8981 14.752 52.6185 14.4724C52.3389 14.1928 52.1818 13.8136 52.1818 13.4182V8.94545C52.1818 8.55004 52.3389 8.17082 52.6185 7.89122C52.8981 7.61162 53.2773 7.45455 53.6727 7.45455H58.1455C58.5409 7.45455 58.9201 7.29747 59.1997 7.01787C59.4793 6.73827 59.6364 6.35905 59.6364 5.96364V5.21818C59.6364 4.82277 59.7934 4.44355 60.073 4.16395C60.3526 3.88435 60.7319 3.72727 61.1273 3.72727H61.8727C62.2681 3.72727 62.6474 3.88435 62.927 4.16395C63.2066 4.44355 63.3636 4.82277 63.3636 5.21818V5.96364C63.3636 6.35905 63.5207 6.73827 63.8003 7.01787C64.0799 7.29747 64.4591 7.45455 64.8545 7.45455H69.3273C69.7227 7.45455 70.1019 7.29747 70.3815 7.01787C70.6611 6.73827 70.8182 6.35905 70.8182 5.96364V1.49091ZM78.2727 1.49091C78.2727 1.0955 78.4298 0.716277 78.7094 0.436677C78.989 0.157077 79.3682 0 79.7636 0L84.2364 0C84.6318 0 85.011 0.157077 85.2906 0.436677C85.5702 0.716277 85.7273 1.0955 85.7273 1.49091V5.96364C85.7273 6.35905 85.5702 6.73827 85.2906 7.01787C85.011 7.29747 84.6318 7.45455 84.2364 7.45455H83.4909C83.0955 7.45455 82.7163 7.29747 82.4367 7.01787C82.1571 6.73827 82 6.35905 82 5.96364V5.21818C82 4.82277 81.8429 4.44355 81.5633 4.16395C81.2837 3.88435 80.9045 3.72727 80.5091 3.72727H79.7636C79.3682 3.72727 78.989 3.5702 78.7094 3.2906C78.4298 3.011 78.2727 2.63178 78.2727 2.23636V1.49091ZM89.4545 1.49091C89.4545 1.0955 89.6116 0.716277 89.8912 0.436677C90.1708 0.157077 90.55 0 90.9455 0L91.6909 0C92.0863 0 92.4655 0.157077 92.7451 0.436677C93.0247 0.716277 93.1818 1.0955 93.1818 1.49091V2.23636C93.1818 2.63178 93.0247 3.011 92.7451 3.2906C92.4655 3.5702 92.0863 3.72727 91.6909 3.72727H90.9455C90.55 3.72727 90.1708 3.5702 89.8912 3.2906C89.6116 3.011 89.4545 2.63178 89.4545 2.23636V1.49091ZM29.8182 5.21818C29.8182 4.82277 29.9753 4.44355 30.2549 4.16395C30.5345 3.88435 30.9137 3.72727 31.3091 3.72727H32.0545C32.45 3.72727 32.8292 3.88435 33.1088 4.16395C33.3884 4.44355 33.5455 4.82277 33.5455 5.21818V5.96364C33.5455 6.35905 33.7025 6.73827 33.9821 7.01787C34.2617 7.29747 34.6409 7.45455 35.0364 7.45455H39.5091C39.9045 7.45455 40.2837 7.61162 40.5633 7.89122C40.8429 8.17082 41 8.55004 41 8.94545V9.69091C41 10.0863 40.8429 10.4655 40.5633 10.7451C40.2837 11.0247 39.9045 11.1818 39.5091 11.1818H35.0364C34.6409 11.1818 34.2617 11.3389 33.9821 11.6185C33.7025 11.8981 33.5455 12.2773 33.5455 12.6727V13.4182C33.5455 13.8136 33.7025 14.1928 33.9821 14.4724C34.2617 14.752 34.6409 14.9091 35.0364 14.9091H35.7818C36.1772 14.9091 36.5564 15.0662 36.8361 15.3458C37.1157 15.6254 37.2727 16.0046 37.2727 16.4V17.1455C37.2727 17.5409 37.1157 17.9201 36.8361 18.1997C36.5564 18.4793 36.1772 18.6364 35.7818 18.6364H35.0364C34.6409 18.6364 34.2617 18.7934 33.9821 19.073C33.7025 19.3526 33.5455 19.7319 33.5455 20.1273V24.6C33.5455 24.9954 33.3884 25.3746 33.1088 25.6542C32.8292 25.9338 32.45 26.0909 32.0545 26.0909H31.3091C30.9137 26.0909 30.5345 25.9338 30.2549 25.6542C29.9753 25.3746 29.8182 24.9954 29.8182 24.6V5.21818ZM44.7273 8.94545C44.7273 8.55004 44.8843 8.17082 45.1639 7.89122C45.4436 7.61162 45.8228 7.45455 46.2182 7.45455H46.9636C47.3591 7.45455 47.7383 7.61162 48.0179 7.89122C48.2975 8.17082 48.4545 8.55004 48.4545 8.94545V13.4182C48.4545 13.8136 48.2975 14.1928 48.0179 14.4724C47.7383 14.752 47.3591 14.9091 46.9636 14.9091H46.2182C45.8228 14.9091 45.4436 14.752 45.1639 14.4724C44.8843 14.1928 44.7273 13.8136 44.7273 13.4182V8.94545ZM78.2727 8.94545C78.2727 8.55004 78.4298 8.17082 78.7094 7.89122C78.989 7.61162 79.3682 7.45455 79.7636 7.45455H80.5091C80.9045 7.45455 81.2837 7.61162 81.5633 7.89122C81.8429 8.17082 82 8.55004 82 8.94545V9.69091C82 10.0863 82.1571 10.4655 82.4367 10.7451C82.7163 11.0247 83.0955 11.1818 83.4909 11.1818H87.9636C88.3591 11.1818 88.7383 11.0247 89.0179 10.7451C89.2975 10.4655 89.4545 10.0863 89.4545 9.69091V8.94545C89.4545 8.55004 89.6116 8.17082 89.8912 7.89122C90.1708 7.61162 90.55 7.45455 90.9455 7.45455H91.6909C92.0863 7.45455 92.4655 7.61162 92.7451 7.89122C93.0247 8.17082 93.1818 8.55004 93.1818 8.94545V24.6C93.1818 24.9954 93.0247 25.3746 92.7451 25.6542C92.4655 25.9338 92.0863 26.0909 91.6909 26.0909H90.9455C90.55 26.0909 90.1708 25.9338 89.8912 25.6542C89.6116 25.3746 89.4545 24.9954 89.4545 24.6V20.1273C89.4545 19.7319 89.2975 19.3526 89.0179 19.073C88.7383 18.7934 88.3591 18.6364 87.9636 18.6364H87.2182C86.8228 18.6364 86.4436 18.4793 86.1639 18.1997C85.8843 17.9201 85.7273 17.5409 85.7273 17.1455V16.4C85.7273 16.0046 85.5702 15.6254 85.2906 15.3458C85.011 15.0662 84.6318 14.9091 84.2364 14.9091H83.4909C83.0955 14.9091 82.7163 15.0662 82.4367 15.3458C82.1571 15.6254 82 16.0046 82 16.4V17.1455C82 17.5409 82.1571 17.9201 82.4367 18.1997C82.7163 18.4793 83.0955 18.6364 83.4909 18.6364H84.2364C84.6318 18.6364 85.011 18.7934 85.2906 19.073C85.5702 19.3526 85.7273 19.7319 85.7273 20.1273V24.6C85.7273 24.9954 85.5702 25.3746 85.2906 25.6542C85.011 25.9338 84.6318 26.0909 84.2364 26.0909H83.4909C83.0955 26.0909 82.7163 25.9338 82.4367 25.6542C82.1571 25.3746 82 24.9954 82 24.6V23.8545C82 23.4591 81.8429 23.0799 81.5633 22.8003C81.2837 22.5207 80.9045 22.3636 80.5091 22.3636H79.7636C79.3682 22.3636 78.989 22.2066 78.7094 21.927C78.4298 21.6474 78.2727 21.2681 78.2727 20.8727V20.1273C78.2727 19.7319 78.1157 19.3526 77.8361 19.073C77.5564 18.7934 77.1772 18.6364 76.7818 18.6364H72.3091C71.9137 18.6364 71.5345 18.4793 71.2549 18.1997C70.9753 17.9201 70.8182 17.5409 70.8182 17.1455V16.4C70.8182 16.0046 70.9753 15.6254 71.2549 15.3458C71.5345 15.0662 71.9137 14.9091 72.3091 14.9091H73.0546C73.45 14.9091 73.8292 14.752 74.1088 14.4724C74.3884 14.1928 74.5455 13.8136 74.5455 13.4182V12.6727C74.5455 12.2773 74.7025 11.8981 74.9821 11.6185C75.2617 11.3389 75.6409 11.1818 76.0364 11.1818H76.7818C77.1772 11.1818 77.5564 11.0247 77.8361 10.7451C78.1157 10.4655 78.2727 10.0863 78.2727 9.69091V8.94545ZM41 16.4C41 16.0046 41.1571 15.6254 41.4367 15.3458C41.7163 15.0662 42.0955 14.9091 42.4909 14.9091H43.2364C43.6318 14.9091 44.011 15.0662 44.2906 15.3458C44.5702 15.6254 44.7273 16.0046 44.7273 16.4V20.8727C44.7273 21.2681 44.5702 21.6474 44.2906 21.927C44.011 22.2066 43.6318 22.3636 43.2364 22.3636H42.4909C42.0955 22.3636 41.7163 22.2066 41.4367 21.927C41.1571 21.6474 41 21.2681 41 20.8727V16.4ZM48.4545 16.4C48.4545 16.0046 48.6116 15.6254 48.8912 15.3458C49.1708 15.0662 49.55 14.9091 49.9455 14.9091H50.6909C51.0863 14.9091 51.4655 15.0662 51.7451 15.3458C52.0247 15.6254 52.1818 16.0046 52.1818 16.4V17.1455C52.1818 17.5409 52.0247 17.9201 51.7451 18.1997C51.4655 18.4793 51.0863 18.6364 50.6909 18.6364H49.9455C49.55 18.6364 49.1708 18.4793 48.8912 18.1997C48.6116 17.9201 48.4545 17.5409 48.4545 17.1455V16.4ZM52.1818 20.1273C52.1818 19.7319 52.3389 19.3526 52.6185 19.073C52.8981 18.7934 53.2773 18.6364 53.6727 18.6364H58.1455C58.5409 18.6364 58.9201 18.7934 59.1997 19.073C59.4793 19.3526 59.6364 19.7319 59.6364 20.1273V20.8727C59.6364 21.2681 59.4793 21.6474 59.1997 21.927C58.9201 22.2066 58.5409 22.3636 58.1455 22.3636H57.4C57.0046 22.3636 56.6254 22.5207 56.3458 22.8003C56.0662 23.0799 55.9091 23.4591 55.9091 23.8545V24.6C55.9091 24.9954 55.752 25.3746 55.4724 25.6542C55.1928 25.9338 54.8136 26.0909 54.4182 26.0909H53.6727C53.2773 26.0909 52.8981 25.9338 52.6185 25.6542C52.3389 25.3746 52.1818 24.9954 52.1818 24.6V20.1273ZM67.0909 20.1273C67.0909 19.7319 67.248 19.3526 67.5276 19.073C67.8072 18.7934 68.1864 18.6364 68.5818 18.6364H69.3273C69.7227 18.6364 70.1019 18.7934 70.3815 19.073C70.6611 19.3526 70.8182 19.7319 70.8182 20.1273V28.3273C70.8182 28.7227 70.6611 29.1019 70.3815 29.3815C70.1019 29.6611 69.7227 29.8182 69.3273 29.8182H68.5818C68.1864 29.8182 67.8072 29.6611 67.5276 29.3815C67.248 29.1019 67.0909 28.7227 67.0909 28.3273V20.1273ZM37.2727 23.8545C37.2727 23.4591 37.4298 23.0799 37.7094 22.8003C37.989 22.5207 38.3682 22.3636 38.7636 22.3636H39.5091C39.9045 22.3636 40.2837 22.5207 40.5633 22.8003C40.8429 23.0799 41 23.4591 41 23.8545V24.6C41 24.9954 40.8429 25.3746 40.5633 25.6542C40.2837 25.9338 39.9045 26.0909 39.5091 26.0909H38.7636C38.3682 26.0909 37.989 25.9338 37.7094 25.6542C37.4298 25.3746 37.2727 24.9954 37.2727 24.6V23.8545ZM44.7273 23.8545C44.7273 23.4591 44.8843 23.0799 45.1639 22.8003C45.4436 22.5207 45.8228 22.3636 46.2182 22.3636H46.9636C47.3591 22.3636 47.7383 22.5207 48.0179 22.8003C48.2975 23.0799 48.4545 23.4591 48.4545 23.8545V28.3273C48.4545 28.7227 48.6116 29.1019 48.8912 29.3815C49.1708 29.6611 49.55 29.8182 49.9455 29.8182H50.6909C51.0863 29.8182 51.4655 29.9753 51.7451 30.2549C52.0247 30.5345 52.1818 30.9137 52.1818 31.3091V39.5091C52.1818 39.9045 52.0247 40.2837 51.7451 40.5633C51.4655 40.8429 51.0863 41 50.6909 41H49.9455C49.55 41 49.1708 40.8429 48.8912 40.5633C48.6116 40.2837 48.4545 39.9045 48.4545 39.5091V38.7636C48.4545 38.3682 48.2975 37.989 48.0179 37.7094C47.7383 37.4298 47.3591 37.2727 46.9636 37.2727H46.2182C45.8228 37.2727 45.4436 37.1157 45.1639 36.8361C44.8843 36.5564 44.7273 36.1772 44.7273 35.7818V35.0364C44.7273 34.6409 44.5702 34.2617 44.2906 33.9821C44.011 33.7025 43.6318 33.5455 43.2364 33.5455H42.4909C42.0955 33.5455 41.7163 33.7025 41.4367 33.9821C41.1571 34.2617 41 34.6409 41 35.0364V35.7818C41 36.1772 41.1571 36.5564 41.4367 36.8361C41.7163 37.1157 42.0955 37.2727 42.4909 37.2727H43.2364C43.6318 37.2727 44.011 37.4298 44.2906 37.7094C44.5702 37.989 44.7273 38.3682 44.7273 38.7636V39.5091C44.7273 39.9045 44.5702 40.2837 44.2906 40.5633C44.011 40.8429 43.6318 41 43.2364 41H35.0364C34.6409 41 34.2617 40.8429 33.9821 40.5633C33.7025 40.2837 33.5455 39.9045 33.5455 39.5091V35.0364C33.5455 34.6409 33.7025 34.2617 33.9821 33.9821C34.2617 33.7025 34.6409 33.5455 35.0364 33.5455H35.7818C36.1772 33.5455 36.5564 33.3884 36.8361 33.1088C37.1157 32.8292 37.2727 32.45 37.2727 32.0545V31.3091C37.2727 30.9137 37.4298 30.5345 37.7094 30.2549C37.989 29.9753 38.3682 29.8182 38.7636 29.8182H39.5091C39.9045 29.8182 40.2837 29.6611 40.5633 29.3815C40.8429 29.1019 41 28.7227 41 28.3273V27.5818C41 27.1864 41.1571 26.8072 41.4367 26.5276C41.7163 26.248 42.0955 26.0909 42.4909 26.0909H43.2364C43.6318 26.0909 44.011 25.9338 44.2906 25.6542C44.5702 25.3746 44.7273 24.9954 44.7273 24.6V23.8545ZM59.6364 23.8545C59.6364 23.4591 59.7934 23.0799 60.073 22.8003C60.3526 22.5207 60.7319 22.3636 61.1273 22.3636H61.8727C62.2681 22.3636 62.6474 22.5207 62.927 22.8003C63.2066 23.0799 63.3636 23.4591 63.3636 23.8545V28.3273C63.3636 28.7227 63.2066 29.1019 62.927 29.3815C62.6474 29.6611 62.2681 29.8182 61.8727 29.8182H61.1273C60.7319 29.8182 60.3526 29.9753 60.073 30.2549C59.7934 30.5345 59.6364 30.9137 59.6364 31.3091V32.0545C59.6364 32.45 59.7934 32.8292 60.073 33.1088C60.3526 33.3884 60.7319 33.5455 61.1273 33.5455H61.8727C62.2681 33.5455 62.6474 33.7025 62.927 33.9821C63.2066 34.2617 63.3636 34.6409 63.3636 35.0364V35.7818C63.3636 36.1772 63.2066 36.5564 62.927 36.8361C62.6474 37.1157 62.2681 37.2727 61.8727 37.2727H57.4C57.0046 37.2727 56.6254 37.1157 56.3458 36.8361C56.0662 36.5564 55.9091 36.1772 55.9091 35.7818V27.5818C55.9091 27.1864 56.0662 26.8072 56.3458 26.5276C56.6254 26.248 57.0046 26.0909 57.4 26.0909H58.1455C58.5409 26.0909 58.9201 25.9338 59.1997 25.6542C59.4793 25.3746 59.6364 24.9954 59.6364 24.6V23.8545ZM74.5455 23.8545C74.5455 23.4591 74.7025 23.0799 74.9821 22.8003C75.2617 22.5207 75.6409 22.3636 76.0364 22.3636H76.7818C77.1772 22.3636 77.5564 22.5207 77.8361 22.8003C78.1157 23.0799 78.2727 23.4591 78.2727 23.8545V32.0545C78.2727 32.45 78.4298 32.8292 78.7094 33.1088C78.989 33.3884 79.3682 33.5455 79.7636 33.5455H80.5091C80.9045 33.5455 81.2837 33.7025 81.5633 33.9821C81.8429 34.2617 82 34.6409 82 35.0364V35.7818C82 36.1772 81.8429 36.5564 81.5633 36.8361C81.2837 37.1157 80.9045 37.2727 80.5091 37.2727H76.0364C75.6409 37.2727 75.2617 37.1157 74.9821 36.8361C74.7025 36.5564 74.5455 36.1772 74.5455 35.7818V23.8545ZM33.5455 27.5818C33.5455 27.1864 33.7025 26.8072 33.9821 26.5276C34.2617 26.248 34.6409 26.0909 35.0364 26.0909H35.7818C36.1772 26.0909 36.5564 26.248 36.8361 26.5276C37.1157 26.8072 37.2727 27.1864 37.2727 27.5818V28.3273C37.2727 28.7227 37.1157 29.1019 36.8361 29.3815C36.5564 29.6611 36.1772 29.8182 35.7818 29.8182H35.0364C34.6409 29.8182 34.2617 29.6611 33.9821 29.3815C33.7025 29.1019 33.5455 28.7227 33.5455 28.3273V27.5818ZM7.45455 31.3091C7.45455 30.9137 7.61162 30.5345 7.89122 30.2549C8.17082 29.9753 8.55004 29.8182 8.94545 29.8182H9.69091C10.0863 29.8182 10.4655 29.9753 10.7451 30.2549C11.0247 30.5345 11.1818 30.9137 11.1818 31.3091V35.7818C11.1818 36.1772 11.3389 36.5564 11.6185 36.8361C11.8981 37.1157 12.2773 37.2727 12.6727 37.2727H13.4182C13.8136 37.2727 14.1928 37.4298 14.4724 37.7094C14.752 37.989 14.9091 38.3682 14.9091 38.7636V39.5091C14.9091 39.9045 14.752 40.2837 14.4724 40.5633C14.1928 40.8429 13.8136 41 13.4182 41H8.94545C8.55004 41 8.17082 40.8429 7.89122 40.5633C7.61162 40.2837 7.45455 39.9045 7.45455 39.5091V31.3091ZM18.6364 31.3091C18.6364 30.9137 18.7934 30.5345 19.073 30.2549C19.3526 29.9753 19.7319 29.8182 20.1273 29.8182H32.0545C32.45 29.8182 32.8292 29.9753 33.1088 30.2549C33.3884 30.5345 33.5455 30.9137 33.5455 31.3091V32.0545C33.5455 32.45 33.3884 32.8292 33.1088 33.1088C32.8292 33.3884 32.45 33.5455 32.0545 33.5455H23.8545C23.4591 33.5455 23.0799 33.7025 22.8003 33.9821C22.5207 34.2617 22.3636 34.6409 22.3636 35.0364V35.7818C22.3636 36.1772 22.2066 36.5564 21.927 36.8361C21.6474 37.1157 21.2681 37.2727 20.8727 37.2727H16.4C16.0046 37.2727 15.6254 37.1157 15.3458 36.8361C15.0662 36.5564 14.9091 36.1772 14.9091 35.7818V35.0364C14.9091 34.6409 15.0662 34.2617 15.3458 33.9821C15.6254 33.7025 16.0046 33.5455 16.4 33.5455H17.1455C17.5409 33.5455 17.9201 33.3884 18.1997 33.1088C18.4793 32.8292 18.6364 32.45 18.6364 32.0545V31.3091ZM63.3636 31.3091C63.3636 30.9137 63.5207 30.5345 63.8003 30.2549C64.0799 29.9753 64.4591 29.8182 64.8545 29.8182H65.6C65.9954 29.8182 66.3746 29.9753 66.6542 30.2549C66.9338 30.5345 67.0909 30.9137 67.0909 31.3091V32.0545C67.0909 32.45 66.9338 32.8292 66.6542 33.1088C66.3746 33.3884 65.9954 33.5455 65.6 33.5455H64.8545C64.4591 33.5455 64.0799 33.3884 63.8003 33.1088C63.5207 32.8292 63.3636 32.45 63.3636 32.0545V31.3091ZM85.7273 31.3091C85.7273 30.9137 85.8843 30.5345 86.1639 30.2549C86.4436 29.9753 86.8228 29.8182 87.2182 29.8182H87.9636C88.3591 29.8182 88.7383 29.9753 89.0179 30.2549C89.2975 30.5345 89.4545 30.9137 89.4545 31.3091V32.0545C89.4545 32.45 89.2975 32.8292 89.0179 33.1088C88.7383 33.3884 88.3591 33.5455 87.9636 33.5455H87.2182C86.8228 33.5455 86.4436 33.3884 86.1639 33.1088C85.8843 32.8292 85.7273 32.45 85.7273 32.0545V31.3091ZM93.1818 31.3091C93.1818 30.9137 93.3389 30.5345 93.6185 30.2549C93.8981 29.9753 94.2773 29.8182 94.6727 29.8182H95.4182C95.8136 29.8182 96.1928 29.9753 96.4724 30.2549C96.752 30.5345 96.9091 30.9137 96.9091 31.3091V32.0545C96.9091 32.45 97.0662 32.8292 97.3458 33.1088C97.6254 33.3884 98.0046 33.5455 98.4 33.5455H99.1455C99.5409 33.5455 99.9201 33.3884 100.2 33.1088C100.479 32.8292 100.636 32.45 100.636 32.0545V31.3091C100.636 30.9137 100.793 30.5345 101.073 30.2549C101.353 29.9753 101.732 29.8182 102.127 29.8182H117.782C118.177 29.8182 118.556 29.9753 118.836 30.2549C119.116 30.5345 119.273 30.9137 119.273 31.3091V32.0545C119.273 32.45 119.43 32.8292 119.709 33.1088C119.989 33.3884 120.368 33.5455 120.764 33.5455H121.509C121.905 33.5455 122.284 33.7025 122.563 33.9821C122.843 34.2617 123 34.6409 123 35.0364V39.5091C123 39.9045 122.843 40.2837 122.563 40.5633C122.284 40.8429 121.905 41 121.509 41H120.764C120.368 41 119.989 40.8429 119.709 40.5633C119.43 40.2837 119.273 39.9045 119.273 39.5091V38.7636C119.273 38.3682 119.116 37.989 118.836 37.7094C118.556 37.4298 118.177 37.2727 117.782 37.2727H117.036C116.641 37.2727 116.262 37.4298 115.982 37.7094C115.703 37.989 115.545 38.3682 115.545 38.7636V39.5091C115.545 39.9045 115.388 40.2837 115.109 40.5633C114.829 40.8429 114.45 41 114.055 41H113.309C112.914 41 112.534 40.8429 112.255 40.5633C111.975 40.2837 111.818 39.9045 111.818 39.5091V35.0364C111.818 34.6409 111.661 34.2617 111.382 33.9821C111.102 33.7025 110.723 33.5455 110.327 33.5455H105.855C105.459 33.5455 105.08 33.7025 104.8 33.9821C104.521 34.2617 104.364 34.6409 104.364 35.0364V35.7818C104.364 36.1772 104.521 36.5564 104.8 36.8361C105.08 37.1157 105.459 37.2727 105.855 37.2727H106.6C106.995 37.2727 107.375 37.4298 107.654 37.7094C107.934 37.989 108.091 38.3682 108.091 38.7636V39.5091C108.091 39.9045 107.934 40.2837 107.654 40.5633C107.375 40.8429 106.995 41 106.6 41H105.855C105.459 41 105.08 41.1571 104.8 41.4367C104.521 41.7163 104.364 42.0955 104.364 42.4909V43.2364C104.364 43.6318 104.521 44.011 104.8 44.2906C105.08 44.5702 105.459 44.7273 105.855 44.7273H106.6C106.995 44.7273 107.375 44.5702 107.654 44.2906C107.934 44.011 108.091 43.6318 108.091 43.2364V42.4909C108.091 42.0955 108.248 41.7163 108.528 41.4367C108.807 41.1571 109.186 41 109.582 41H110.327C110.723 41 111.102 41.1571 111.382 41.4367C111.661 41.7163 111.818 42.0955 111.818 42.4909V46.9636C111.818 47.3591 111.975 47.7383 112.255 48.0179C112.534 48.2975 112.914 48.4545 113.309 48.4545H114.055C114.45 48.4545 114.829 48.6116 115.109 48.8912C115.388 49.1708 115.545 49.55 115.545 49.9455V50.6909C115.545 51.0863 115.388 51.4655 115.109 51.7451C114.829 52.0247 114.45 52.1818 114.055 52.1818H113.309C112.914 52.1818 112.534 52.3389 112.255 52.6185C111.975 52.8981 111.818 53.2773 111.818 53.6727V54.4182C111.818 54.8136 111.975 55.1928 112.255 55.4724C112.534 55.752 112.914 55.9091 113.309 55.9091H114.055C114.45 55.9091 114.829 56.0662 115.109 56.3458C115.388 56.6254 115.545 57.0046 115.545 57.4V58.1455C115.545 58.5409 115.703 58.9201 115.982 59.1997C116.262 59.4793 116.641 59.6364 117.036 59.6364H117.782C118.177 59.6364 118.556 59.7934 118.836 60.073C119.116 60.3526 119.273 60.7319 119.273 61.1273V61.8727C119.273 62.2681 119.116 62.6474 118.836 62.927C118.556 63.2066 118.177 63.3636 117.782 63.3636H117.036C116.641 63.3636 116.262 63.5207 115.982 63.8003C115.703 64.0799 115.545 64.4591 115.545 64.8545V65.6C115.545 65.9954 115.703 66.3746 115.982 66.6542C116.262 66.9338 116.641 67.0909 117.036 67.0909H121.509C121.905 67.0909 122.284 67.248 122.563 67.5276C122.843 67.8072 123 68.1864 123 68.5818V87.9636C123 88.3591 122.843 88.7383 122.563 89.0179C122.284 89.2975 121.905 89.4545 121.509 89.4545H120.764C120.368 89.4545 119.989 89.2975 119.709 89.0179C119.43 88.7383 119.273 88.3591 119.273 87.9636V79.7636C119.273 79.3682 119.116 78.989 118.836 78.7094C118.556 78.4298 118.177 78.2727 117.782 78.2727H117.036C116.641 78.2727 116.262 78.1157 115.982 77.8361C115.703 77.5564 115.545 77.1772 115.545 76.7818V76.0364C115.545 75.6409 115.703 75.2617 115.982 74.9821C116.262 74.7025 116.641 74.5455 117.036 74.5455H117.782C118.177 74.5455 118.556 74.3884 118.836 74.1088C119.116 73.8292 119.273 73.45 119.273 73.0546V72.3091C119.273 71.9137 119.116 71.5345 118.836 71.2549C118.556 70.9753 118.177 70.8182 117.782 70.8182H113.309C112.914 70.8182 112.534 70.9753 112.255 71.2549C111.975 71.5345 111.818 71.9137 111.818 72.3091V73.0546C111.818 73.45 111.661 73.8292 111.382 74.1088C111.102 74.3884 110.723 74.5455 110.327 74.5455H105.855C105.459 74.5455 105.08 74.7025 104.8 74.9821C104.521 75.2617 104.364 75.6409 104.364 76.0364V80.5091C104.364 80.9045 104.207 81.2837 103.927 81.5633C103.647 81.8429 103.268 82 102.873 82H102.127C101.732 82 101.353 81.8429 101.073 81.5633C100.793 81.2837 100.636 80.9045 100.636 80.5091V79.7636C100.636 79.3682 100.479 78.989 100.2 78.7094C99.9201 78.4298 99.5409 78.2727 99.1455 78.2727H98.4C98.0046 78.2727 97.6254 78.4298 97.3458 78.7094C97.0662 78.989 96.9091 79.3682 96.9091 79.7636V80.5091C96.9091 80.9045 97.0662 81.2837 97.3458 81.5633C97.6254 81.8429 98.0046 82 98.4 82H99.1455C99.5409 82 99.9201 82.1571 100.2 82.4367C100.479 82.7163 100.636 83.0955 100.636 83.4909V84.2364C100.636 84.6318 100.479 85.011 100.2 85.2906C99.9201 85.5702 99.5409 85.7273 99.1455 85.7273H94.6727C94.2773 85.7273 93.8981 85.8843 93.6185 86.1639C93.3389 86.4436 93.1818 86.8228 93.1818 87.2182V87.9636C93.1818 88.3591 93.3389 88.7383 93.6185 89.0179C93.8981 89.2975 94.2773 89.4545 94.6727 89.4545H99.1455C99.5409 89.4545 99.9201 89.2975 100.2 89.0179C100.479 88.7383 100.636 88.3591 100.636 87.9636V87.2182C100.636 86.8228 100.793 86.4436 101.073 86.1639C101.353 85.8843 101.732 85.7273 102.127 85.7273H102.873C103.268 85.7273 103.647 85.5702 103.927 85.2906C104.207 85.011 104.364 84.6318 104.364 84.2364V83.4909C104.364 83.0955 104.521 82.7163 104.8 82.4367C105.08 82.1571 105.459 82 105.855 82H110.327C110.723 82 111.102 82.1571 111.382 82.4367C111.661 82.7163 111.818 83.0955 111.818 83.4909V84.2364C111.818 84.6318 111.661 85.011 111.382 85.2906C111.102 85.5702 110.723 85.7273 110.327 85.7273H109.582C109.186 85.7273 108.807 85.8843 108.528 86.1639C108.248 86.4436 108.091 86.8228 108.091 87.2182V87.9636C108.091 88.3591 108.248 88.7383 108.528 89.0179C108.807 89.2975 109.186 89.4545 109.582 89.4545H110.327C110.723 89.4545 111.102 89.6116 111.382 89.8912C111.661 90.1708 111.818 90.55 111.818 90.9455V91.6909C111.818 92.0863 111.975 92.4655 112.255 92.7451C112.534 93.0247 112.914 93.1818 113.309 93.1818H121.509C121.905 93.1818 122.284 93.3389 122.563 93.6185C122.843 93.8981 123 94.2773 123 94.6727V102.873C123 103.268 122.843 103.647 122.563 103.927C122.284 104.207 121.905 104.364 121.509 104.364H117.036C116.641 104.364 116.262 104.207 115.982 103.927C115.703 103.647 115.545 103.268 115.545 102.873V102.127C115.545 101.732 115.703 101.353 115.982 101.073C116.262 100.793 116.641 100.636 117.036 100.636H117.782C118.177 100.636 118.556 100.479 118.836 100.2C119.116 99.9201 119.273 99.5409 119.273 99.1455V98.4C119.273 98.0046 119.116 97.6254 118.836 97.3458C118.556 97.0662 118.177 96.9091 117.782 96.9091H109.582C109.186 96.9091 108.807 97.0662 108.528 97.3458C108.248 97.6254 108.091 98.0046 108.091 98.4V102.873C108.091 103.268 108.248 103.647 108.528 103.927C108.807 104.207 109.186 104.364 109.582 104.364H110.327C110.723 104.364 111.102 104.521 111.382 104.8C111.661 105.08 111.818 105.459 111.818 105.855V106.6C111.818 106.995 111.661 107.375 111.382 107.654C111.102 107.934 110.723 108.091 110.327 108.091H109.582C109.186 108.091 108.807 108.248 108.528 108.528C108.248 108.807 108.091 109.186 108.091 109.582V114.055C108.091 114.45 107.934 114.829 107.654 115.109C107.375 115.388 106.995 115.545 106.6 115.545H105.855C105.459 115.545 105.08 115.388 104.8 115.109C104.521 114.829 104.364 114.45 104.364 114.055V113.309C104.364 112.914 104.207 112.534 103.927 112.255C103.647 111.975 103.268 111.818 102.873 111.818H102.127C101.732 111.818 101.353 111.661 101.073 111.382C100.793 111.102 100.636 110.723 100.636 110.327V109.582C100.636 109.186 100.479 108.807 100.2 108.528C99.9201 108.248 99.5409 108.091 99.1455 108.091H98.4C98.0046 108.091 97.6254 108.248 97.3458 108.528C97.0662 108.807 96.9091 109.186 96.9091 109.582V110.327C96.9091 110.723 96.752 111.102 96.4724 111.382C96.1928 111.661 95.8136 111.818 95.4182 111.818H94.6727C94.2773 111.818 93.8981 111.661 93.6185 111.382C93.3389 111.102 93.1818 110.723 93.1818 110.327V109.582C93.1818 109.186 93.0247 108.807 92.7451 108.528C92.4655 108.248 92.0863 108.091 91.6909 108.091H87.2182C86.8228 108.091 86.4436 108.248 86.1639 108.528C85.8843 108.807 85.7273 109.186 85.7273 109.582V110.327C85.7273 110.723 85.5702 111.102 85.2906 111.382C85.011 111.661 84.6318 111.818 84.2364 111.818H76.0364C75.6409 111.818 75.2617 111.975 74.9821 112.255C74.7025 112.534 74.5455 112.914 74.5455 113.309V114.055C74.5455 114.45 74.3884 114.829 74.1088 115.109C73.8292 115.388 73.45 115.545 73.0546 115.545H72.3091C71.9137 115.545 71.5345 115.703 71.2549 115.982C70.9753 116.262 70.8182 116.641 70.8182 117.036V117.782C70.8182 118.177 70.6611 118.556 70.3815 118.836C70.1019 119.116 69.7227 119.273 69.3273 119.273H68.5818C68.1864 119.273 67.8072 119.43 67.5276 119.709C67.248 119.989 67.0909 120.368 67.0909 120.764V121.509C67.0909 121.905 66.9338 122.284 66.6542 122.563C66.3746 122.843 65.9954 123 65.6 123H53.6727C53.2773 123 52.8981 122.843 52.6185 122.563C52.3389 122.284 52.1818 121.905 52.1818 121.509V120.764C52.1818 120.368 52.0247 119.989 51.7451 119.709C51.4655 119.43 51.0863 119.273 50.6909 119.273H49.9455C49.55 119.273 49.1708 119.116 48.8912 118.836C48.6116 118.556 48.4545 118.177 48.4545 117.782V113.309C48.4545 112.914 48.6116 112.534 48.8912 112.255C49.1708 111.975 49.55 111.818 49.9455 111.818H54.4182C54.8136 111.818 55.1928 111.661 55.4724 111.382C55.752 111.102 55.9091 110.723 55.9091 110.327V109.582C55.9091 109.186 56.0662 108.807 56.3458 108.528C56.6254 108.248 57.0046 108.091 57.4 108.091H61.8727C62.2681 108.091 62.6474 107.934 62.927 107.654C63.2066 107.375 63.3636 106.995 63.3636 106.6V105.855C63.3636 105.459 63.2066 105.08 62.927 104.8C62.6474 104.521 62.2681 104.364 61.8727 104.364H61.1273C60.7319 104.364 60.3526 104.207 60.073 103.927C59.7934 103.647 59.6364 103.268 59.6364 102.873V98.4C59.6364 98.0046 59.7934 97.6254 60.073 97.3458C60.3526 97.0662 60.7319 96.9091 61.1273 96.9091H61.8727C62.2681 96.9091 62.6474 96.752 62.927 96.4724C63.2066 96.1928 63.3636 95.8136 63.3636 95.4182V94.6727C63.3636 94.2773 63.2066 93.8981 62.927 93.6185C62.6474 93.3389 62.2681 93.1818 61.8727 93.1818H61.1273C60.7319 93.1818 60.3526 93.3389 60.073 93.6185C59.7934 93.8981 59.6364 94.2773 59.6364 94.6727V95.4182C59.6364 95.8136 59.4793 96.1928 59.1997 96.4724C58.9201 96.752 58.5409 96.9091 58.1455 96.9091H57.4C57.0046 96.9091 56.6254 96.752 56.3458 96.4724C56.0662 96.1928 55.9091 95.8136 55.9091 95.4182V94.6727C55.9091 94.2773 55.752 93.8981 55.4724 93.6185C55.1928 93.3389 54.8136 93.1818 54.4182 93.1818H53.6727C53.2773 93.1818 52.8981 93.0247 52.6185 92.7451C52.3389 92.4655 52.1818 92.0863 52.1818 91.6909V87.2182C52.1818 86.8228 52.3389 86.4436 52.6185 86.1639C52.8981 85.8843 53.2773 85.7273 53.6727 85.7273H54.4182C54.8136 85.7273 55.1928 85.8843 55.4724 86.1639C55.752 86.4436 55.9091 86.8228 55.9091 87.2182V87.9636C55.9091 88.3591 56.0662 88.7383 56.3458 89.0179C56.6254 89.2975 57.0046 89.4545 57.4 89.4545H65.6C65.9954 89.4545 66.3746 89.6116 66.6542 89.8912C66.9338 90.1708 67.0909 90.55 67.0909 90.9455V95.4182C67.0909 95.8136 67.248 96.1928 67.5276 96.4724C67.8072 96.752 68.1864 96.9091 68.5818 96.9091H69.3273C69.7227 96.9091 70.1019 97.0662 70.3815 97.3458C70.6611 97.6254 70.8182 98.0046 70.8182 98.4V99.1455C70.8182 99.5409 70.6611 99.9201 70.3815 100.2C70.1019 100.479 69.7227 100.636 69.3273 100.636H68.5818C68.1864 100.636 67.8072 100.793 67.5276 101.073C67.248 101.353 67.0909 101.732 67.0909 102.127V106.6C67.0909 106.995 67.248 107.375 67.5276 107.654C67.8072 107.934 68.1864 108.091 68.5818 108.091H73.0546C73.45 108.091 73.8292 107.934 74.1088 107.654C74.3884 107.375 74.5455 106.995 74.5455 106.6V105.855C74.5455 105.459 74.7025 105.08 74.9821 104.8C75.2617 104.521 75.6409 104.364 76.0364 104.364H80.5091C80.9045 104.364 81.2837 104.207 81.5633 103.927C81.8429 103.647 82 103.268 82 102.873V102.127C82 101.732 81.8429 101.353 81.5633 101.073C81.2837 100.793 80.9045 100.636 80.5091 100.636H76.0364C75.6409 100.636 75.2617 100.479 74.9821 100.2C74.7025 99.9201 74.5455 99.5409 74.5455 99.1455V98.4C74.5455 98.0046 74.7025 97.6254 74.9821 97.3458C75.2617 97.0662 75.6409 96.9091 76.0364 96.9091H80.5091C80.9045 96.9091 81.2837 96.752 81.5633 96.4724C81.8429 96.1928 82 95.8136 82 95.4182V87.2182C82 86.8228 82.1571 86.4436 82.4367 86.1639C82.7163 85.8843 83.0955 85.7273 83.4909 85.7273H87.9636C88.3591 85.7273 88.7383 85.5702 89.0179 85.2906C89.2975 85.011 89.4545 84.6318 89.4545 84.2364V79.7636C89.4545 79.3682 89.2975 78.989 89.0179 78.7094C88.7383 78.4298 88.3591 78.2727 87.9636 78.2727H83.4909C83.0955 78.2727 82.7163 78.1157 82.4367 77.8361C82.1571 77.5564 82 77.1772 82 76.7818V68.5818C82 68.1864 82.1571 67.8072 82.4367 67.5276C82.7163 67.248 83.0955 67.0909 83.4909 67.0909H84.2364C84.6318 67.0909 85.011 66.9338 85.2906 66.6542C85.5702 66.3746 85.7273 65.9954 85.7273 65.6V64.8545C85.7273 64.4591 85.5702 64.0799 85.2906 63.8003C85.011 63.5207 84.6318 63.3636 84.2364 63.3636H83.4909C83.0955 63.3636 82.7163 63.2066 82.4367 62.927C82.1571 62.6474 82 62.2681 82 61.8727V57.4C82 57.0046 82.1571 56.6254 82.4367 56.3458C82.7163 56.0662 83.0955 55.9091 83.4909 55.9091H84.2364C84.6318 55.9091 85.011 56.0662 85.2906 56.3458C85.5702 56.6254 85.7273 57.0046 85.7273 57.4V58.1455C85.7273 58.5409 85.8843 58.9201 86.1639 59.1997C86.4436 59.4793 86.8228 59.6364 87.2182 59.6364H87.9636C88.3591 59.6364 88.7383 59.7934 89.0179 60.073C89.2975 60.3526 89.4545 60.7319 89.4545 61.1273V73.0546C89.4545 73.45 89.6116 73.8292 89.8912 74.1088C90.1708 74.3884 90.55 74.5455 90.9455 74.5455H91.6909C92.0863 74.5455 92.4655 74.3884 92.7451 74.1088C93.0247 73.8292 93.1818 73.45 93.1818 73.0546V64.8545C93.1818 64.4591 93.3389 64.0799 93.6185 63.8003C93.8981 63.5207 94.2773 63.3636 94.6727 63.3636H95.4182C95.8136 63.3636 96.1928 63.2066 96.4724 62.927C96.752 62.6474 96.9091 62.2681 96.9091 61.8727V61.1273C96.9091 60.7319 96.752 60.3526 96.4724 60.073C96.1928 59.7934 95.8136 59.6364 95.4182 59.6364H90.9455C90.55 59.6364 90.1708 59.4793 89.8912 59.1997C89.6116 58.9201 89.4545 58.5409 89.4545 58.1455V57.4C89.4545 57.0046 89.2975 56.6254 89.0179 56.3458C88.7383 56.0662 88.3591 55.9091 87.9636 55.9091H87.2182C86.8228 55.9091 86.4436 55.752 86.1639 55.4724C85.8843 55.1928 85.7273 54.8136 85.7273 54.4182V49.9455C85.7273 49.55 85.8843 49.1708 86.1639 48.8912C86.4436 48.6116 86.8228 48.4545 87.2182 48.4545H87.9636C88.3591 48.4545 88.7383 48.2975 89.0179 48.0179C89.2975 47.7383 89.4545 47.3591 89.4545 46.9636V46.2182C89.4545 45.8228 89.6116 45.4436 89.8912 45.1639C90.1708 44.8843 90.55 44.7273 90.9455 44.7273H91.6909C92.0863 44.7273 92.4655 44.8843 92.7451 45.1639C93.0247 45.4436 93.1818 45.8228 93.1818 46.2182V54.4182C93.1818 54.8136 93.3389 55.1928 93.6185 55.4724C93.8981 55.752 94.2773 55.9091 94.6727 55.9091H95.4182C95.8136 55.9091 96.1928 55.752 96.4724 55.4724C96.752 55.1928 96.9091 54.8136 96.9091 54.4182V46.2182C96.9091 45.8228 96.752 45.4436 96.4724 45.1639C96.1928 44.8843 95.8136 44.7273 95.4182 44.7273H94.6727C94.2773 44.7273 93.8981 44.5702 93.6185 44.2906C93.3389 44.011 93.1818 43.6318 93.1818 43.2364V38.7636C93.1818 38.3682 93.0247 37.989 92.7451 37.7094C92.4655 37.4298 92.0863 37.2727 91.6909 37.2727H90.9455C90.55 37.2727 90.1708 37.1157 89.8912 36.8361C89.6116 36.5564 89.4545 36.1772 89.4545 35.7818V35.0364C89.4545 34.6409 89.6116 34.2617 89.8912 33.9821C90.1708 33.7025 90.55 33.5455 90.9455 33.5455H91.6909C92.0863 33.5455 92.4655 33.3884 92.7451 33.1088C93.0247 32.8292 93.1818 32.45 93.1818 32.0545V31.3091ZM104.364 53.6727C104.364 53.2773 104.521 52.8981 104.8 52.6185C105.08 52.3389 105.459 52.1818 105.855 52.1818H106.6C106.995 52.1818 107.375 52.3389 107.654 52.6185C107.934 52.8981 108.091 53.2773 108.091 53.6727V54.4182C108.091 54.8136 107.934 55.1928 107.654 55.4724C107.375 55.752 106.995 55.9091 106.6 55.9091H105.855C105.459 55.9091 105.08 55.752 104.8 55.4724C104.521 55.1928 104.364 54.8136 104.364 54.4182V53.6727ZM100.636 61.1273C100.636 60.7319 100.793 60.3526 101.073 60.073C101.353 59.7934 101.732 59.6364 102.127 59.6364H106.6C106.995 59.6364 107.375 59.7934 107.654 60.073C107.934 60.3526 108.091 60.7319 108.091 61.1273V61.8727C108.091 62.2681 108.248 62.6474 108.528 62.927C108.807 63.2066 109.186 63.3636 109.582 63.3636H110.327C110.723 63.3636 111.102 63.5207 111.382 63.8003C111.661 64.0799 111.818 64.4591 111.818 64.8545V65.6C111.818 65.9954 111.661 66.3746 111.382 66.6542C111.102 66.9338 110.723 67.0909 110.327 67.0909H109.582C109.186 67.0909 108.807 67.248 108.528 67.5276C108.248 67.8072 108.091 68.1864 108.091 68.5818V69.3273C108.091 69.7227 107.934 70.1019 107.654 70.3815C107.375 70.6611 106.995 70.8182 106.6 70.8182H102.127C101.732 70.8182 101.353 70.6611 101.073 70.3815C100.793 70.1019 100.636 69.7227 100.636 69.3273V61.1273ZM96.9091 72.3091C96.9091 71.9137 97.0662 71.5345 97.3458 71.2549C97.6254 70.9753 98.0046 70.8182 98.4 70.8182H99.1455C99.5409 70.8182 99.9201 70.9753 100.2 71.2549C100.479 71.5345 100.636 71.9137 100.636 72.3091V73.0546C100.636 73.45 100.479 73.8292 100.2 74.1088C99.9201 74.3884 99.5409 74.5455 99.1455 74.5455H98.4C98.0046 74.5455 97.6254 74.3884 97.3458 74.1088C97.0662 73.8292 96.9091 73.45 96.9091 73.0546V72.3091ZM85.7273 90.9455C85.7273 90.55 85.8843 90.1708 86.1639 89.8912C86.4436 89.6116 86.8228 89.4545 87.2182 89.4545H87.9636C88.3591 89.4545 88.7383 89.6116 89.0179 89.8912C89.2975 90.1708 89.4545 90.55 89.4545 90.9455V91.6909C89.4545 92.0863 89.2975 92.4655 89.0179 92.7451C88.7383 93.0247 88.3591 93.1818 87.9636 93.1818H87.2182C86.8228 93.1818 86.4436 93.0247 86.1639 92.7451C85.8843 92.4655 85.7273 92.0863 85.7273 91.6909V90.9455ZM93.1818 94.6727C93.1818 94.2773 93.3389 93.8981 93.6185 93.6185C93.8981 93.3389 94.2773 93.1818 94.6727 93.1818H102.873C103.268 93.1818 103.647 93.3389 103.927 93.6185C104.207 93.8981 104.364 94.2773 104.364 94.6727V102.873C104.364 103.268 104.207 103.647 103.927 103.927C103.647 104.207 103.268 104.364 102.873 104.364H94.6727C94.2773 104.364 93.8981 104.207 93.6185 103.927C93.3389 103.647 93.1818 103.268 93.1818 102.873V94.6727ZM85.7273 98.4C85.7273 98.0046 85.8843 97.6254 86.1639 97.3458C86.4436 97.0662 86.8228 96.9091 87.2182 96.9091H87.9636C88.3591 96.9091 88.7383 97.0662 89.0179 97.3458C89.2975 97.6254 89.4545 98.0046 89.4545 98.4V99.1455C89.4545 99.5409 89.2975 99.9201 89.0179 100.2C88.7383 100.479 88.3591 100.636 87.9636 100.636H87.2182C86.8228 100.636 86.4436 100.479 86.1639 100.2C85.8843 99.9201 85.7273 99.5409 85.7273 99.1455V98.4ZM59.6364 113.309C59.6364 112.914 59.7934 112.534 60.073 112.255C60.3526 111.975 60.7319 111.818 61.1273 111.818H61.8727C62.2681 111.818 62.6474 111.975 62.927 112.255C63.2066 112.534 63.3636 112.914 63.3636 113.309V117.782C63.3636 118.177 63.2066 118.556 62.927 118.836C62.6474 119.116 62.2681 119.273 61.8727 119.273H57.4C57.0046 119.273 56.6254 119.116 56.3458 118.836C56.0662 118.556 55.9091 118.177 55.9091 117.782V117.036C55.9091 116.641 56.0662 116.262 56.3458 115.982C56.6254 115.703 57.0046 115.545 57.4 115.545H58.1455C58.5409 115.545 58.9201 115.388 59.1997 115.109C59.4793 114.829 59.6364 114.45 59.6364 114.055V113.309ZM0 35.0364C0 34.6409 0.157077 34.2617 0.436677 33.9821C0.716277 33.7025 1.0955 33.5455 1.49091 33.5455H2.23636C2.63178 33.5455 3.011 33.7025 3.2906 33.9821C3.5702 34.2617 3.72727 34.6409 3.72727 35.0364V39.5091C3.72727 39.9045 3.5702 40.2837 3.2906 40.5633C3.011 40.8429 2.63178 41 2.23636 41H1.49091C1.0955 41 0.716277 40.8429 0.436677 40.5633C0.157077 40.2837 0 39.9045 0 39.5091L0 35.0364ZM22.3636 38.7636C22.3636 38.3682 22.5207 37.989 22.8003 37.7094C23.0799 37.4298 23.4591 37.2727 23.8545 37.2727H24.6C24.9954 37.2727 25.3746 37.4298 25.6542 37.7094C25.9338 37.989 26.0909 38.3682 26.0909 38.7636V39.5091C26.0909 39.9045 25.9338 40.2837 25.6542 40.5633C25.3746 40.8429 24.9954 41 24.6 41H23.8545C23.4591 41 23.0799 40.8429 22.8003 40.5633C22.5207 40.2837 22.3636 39.9045 22.3636 39.5091V38.7636ZM85.7273 38.7636C85.7273 38.3682 85.8843 37.989 86.1639 37.7094C86.4436 37.4298 86.8228 37.2727 87.2182 37.2727H87.9636C88.3591 37.2727 88.7383 37.4298 89.0179 37.7094C89.2975 37.989 89.4545 38.3682 89.4545 38.7636V39.5091C89.4545 39.9045 89.2975 40.2837 89.0179 40.5633C88.7383 40.8429 88.3591 41 87.9636 41H87.2182C86.8228 41 86.4436 40.8429 86.1639 40.5633C85.8843 40.2837 85.7273 39.9045 85.7273 39.5091V38.7636ZM3.72727 42.4909C3.72727 42.0955 3.88435 41.7163 4.16395 41.4367C4.44355 41.1571 4.82277 41 5.21818 41H5.96364C6.35905 41 6.73827 41.1571 7.01787 41.4367C7.29747 41.7163 7.45455 42.0955 7.45455 42.4909V43.2364C7.45455 43.6318 7.61162 44.011 7.89122 44.2906C8.17082 44.5702 8.55004 44.7273 8.94545 44.7273H13.4182C13.8136 44.7273 14.1928 44.8843 14.4724 45.1639C14.752 45.4436 14.9091 45.8228 14.9091 46.2182V46.9636C14.9091 47.3591 14.752 47.7383 14.4724 48.0179C14.1928 48.2975 13.8136 48.4545 13.4182 48.4545H1.49091C1.0955 48.4545 0.716277 48.2975 0.436677 48.0179C0.157077 47.7383 0 47.3591 0 46.9636L0 46.2182C0 45.8228 0.157077 45.4436 0.436677 45.1639C0.716277 44.8843 1.0955 44.7273 1.49091 44.7273H2.23636C2.63178 44.7273 3.011 44.5702 3.2906 44.2906C3.5702 44.011 3.72727 43.6318 3.72727 43.2364V42.4909ZM26.0909 42.4909C26.0909 42.0955 26.248 41.7163 26.5276 41.4367C26.8072 41.1571 27.1864 41 27.5818 41H28.3273C28.7227 41 29.1019 41.1571 29.3815 41.4367C29.6611 41.7163 29.8182 42.0955 29.8182 42.4909V43.2364C29.8182 43.6318 29.6611 44.011 29.3815 44.2906C29.1019 44.5702 28.7227 44.7273 28.3273 44.7273H27.5818C27.1864 44.7273 26.8072 44.5702 26.5276 44.2906C26.248 44.011 26.0909 43.6318 26.0909 43.2364V42.4909ZM115.545 42.4909C115.545 42.0955 115.703 41.7163 115.982 41.4367C116.262 41.1571 116.641 41 117.036 41H117.782C118.177 41 118.556 41.1571 118.836 41.4367C119.116 41.7163 119.273 42.0955 119.273 42.4909V43.2364C119.273 43.6318 119.43 44.011 119.709 44.2906C119.989 44.5702 120.368 44.7273 120.764 44.7273H121.509C121.905 44.7273 122.284 44.8843 122.563 45.1639C122.843 45.4436 123 45.8228 123 46.2182V58.1455C123 58.5409 122.843 58.9201 122.563 59.1997C122.284 59.4793 121.905 59.6364 121.509 59.6364H120.764C120.368 59.6364 119.989 59.4793 119.709 59.1997C119.43 58.9201 119.273 58.5409 119.273 58.1455V49.9455C119.273 49.55 119.116 49.1708 118.836 48.8912C118.556 48.6116 118.177 48.4545 117.782 48.4545H117.036C116.641 48.4545 116.262 48.2975 115.982 48.0179C115.703 47.7383 115.545 47.3591 115.545 46.9636V42.4909ZM22.3636 46.2182C22.3636 45.8228 22.5207 45.4436 22.8003 45.1639C23.0799 44.8843 23.4591 44.7273 23.8545 44.7273H24.6C24.9954 44.7273 25.3746 44.8843 25.6542 45.1639C25.9338 45.4436 26.0909 45.8228 26.0909 46.2182V46.9636C26.0909 47.3591 25.9338 47.7383 25.6542 48.0179C25.3746 48.2975 24.9954 48.4545 24.6 48.4545H23.8545C23.4591 48.4545 23.0799 48.2975 22.8003 48.0179C22.5207 47.7383 22.3636 47.3591 22.3636 46.9636V46.2182ZM29.8182 46.2182C29.8182 45.8228 29.9753 45.4436 30.2549 45.1639C30.5345 44.8843 30.9137 44.7273 31.3091 44.7273H35.7818C36.1772 44.7273 36.5564 44.8843 36.8361 45.1639C37.1157 45.4436 37.2727 45.8228 37.2727 46.2182V46.9636C37.2727 47.3591 37.1157 47.7383 36.8361 48.0179C36.5564 48.2975 36.1772 48.4545 35.7818 48.4545H35.0364C34.6409 48.4545 34.2617 48.6116 33.9821 48.8912C33.7025 49.1708 33.5455 49.55 33.5455 49.9455V50.6909C33.5455 51.0863 33.7025 51.4655 33.9821 51.7451C34.2617 52.0247 34.6409 52.1818 35.0364 52.1818H35.7818C36.1772 52.1818 36.5564 52.0247 36.8361 51.7451C37.1157 51.4655 37.2727 51.0863 37.2727 50.6909V49.9455C37.2727 49.55 37.4298 49.1708 37.7094 48.8912C37.989 48.6116 38.3682 48.4545 38.7636 48.4545H39.5091C39.9045 48.4545 40.2837 48.6116 40.5633 48.8912C40.8429 49.1708 41 49.55 41 49.9455V65.6C41 65.9954 40.8429 66.3746 40.5633 66.6542C40.2837 66.9338 39.9045 67.0909 39.5091 67.0909H38.7636C38.3682 67.0909 37.989 67.248 37.7094 67.5276C37.4298 67.8072 37.2727 68.1864 37.2727 68.5818V69.3273C37.2727 69.7227 37.4298 70.1019 37.7094 70.3815C37.989 70.6611 38.3682 70.8182 38.7636 70.8182H39.5091C39.9045 70.8182 40.2837 70.9753 40.5633 71.2549C40.8429 71.5345 41 71.9137 41 72.3091V73.0546C41 73.45 40.8429 73.8292 40.5633 74.1088C40.2837 74.3884 39.9045 74.5455 39.5091 74.5455H35.0364C34.6409 74.5455 34.2617 74.3884 33.9821 74.1088C33.7025 73.8292 33.5455 73.45 33.5455 73.0546V68.5818C33.5455 68.1864 33.3884 67.8072 33.1088 67.5276C32.8292 67.248 32.45 67.0909 32.0545 67.0909H31.3091C30.9137 67.0909 30.5345 66.9338 30.2549 66.6542C29.9753 66.3746 29.8182 65.9954 29.8182 65.6V64.8545C29.8182 64.4591 29.9753 64.0799 30.2549 63.8003C30.5345 63.5207 30.9137 63.3636 31.3091 63.3636H32.0545C32.45 63.3636 32.8292 63.2066 33.1088 62.927C33.3884 62.6474 33.5455 62.2681 33.5455 61.8727V61.1273C33.5455 60.7319 33.7025 60.3526 33.9821 60.073C34.2617 59.7934 34.6409 59.6364 35.0364 59.6364H35.7818C36.1772 59.6364 36.5564 59.4793 36.8361 59.1997C37.1157 58.9201 37.2727 58.5409 37.2727 58.1455V57.4C37.2727 57.0046 37.1157 56.6254 36.8361 56.3458C36.5564 56.0662 36.1772 55.9091 35.7818 55.9091H35.0364C34.6409 55.9091 34.2617 56.0662 33.9821 56.3458C33.7025 56.6254 33.5455 57.0046 33.5455 57.4V58.1455C33.5455 58.5409 33.3884 58.9201 33.1088 59.1997C32.8292 59.4793 32.45 59.6364 32.0545 59.6364H31.3091C30.9137 59.6364 30.5345 59.7934 30.2549 60.073C29.9753 60.3526 29.8182 60.7319 29.8182 61.1273V61.8727C29.8182 62.2681 29.6611 62.6474 29.3815 62.927C29.1019 63.2066 28.7227 63.3636 28.3273 63.3636H23.8545C23.4591 63.3636 23.0799 63.2066 22.8003 62.927C22.5207 62.6474 22.3636 62.2681 22.3636 61.8727V61.1273C22.3636 60.7319 22.5207 60.3526 22.8003 60.073C23.0799 59.7934 23.4591 59.6364 23.8545 59.6364H24.6C24.9954 59.6364 25.3746 59.4793 25.6542 59.1997C25.9338 58.9201 26.0909 58.5409 26.0909 58.1455V57.4C26.0909 57.0046 25.9338 56.6254 25.6542 56.3458C25.3746 56.0662 24.9954 55.9091 24.6 55.9091H23.8545C23.4591 55.9091 23.0799 55.752 22.8003 55.4724C22.5207 55.1928 22.3636 54.8136 22.3636 54.4182V53.6727C22.3636 53.2773 22.5207 52.8981 22.8003 52.6185C23.0799 52.3389 23.4591 52.1818 23.8545 52.1818H28.3273C28.7227 52.1818 29.1019 52.0247 29.3815 51.7451C29.6611 51.4655 29.8182 51.0863 29.8182 50.6909V46.2182ZM14.9091 49.9455C14.9091 49.55 15.0662 49.1708 15.3458 48.8912C15.6254 48.6116 16.0046 48.4545 16.4 48.4545H20.8727C21.2681 48.4545 21.6474 48.6116 21.927 48.8912C22.2066 49.1708 22.3636 49.55 22.3636 49.9455V50.6909C22.3636 51.0863 22.2066 51.4655 21.927 51.7451C21.6474 52.0247 21.2681 52.1818 20.8727 52.1818H16.4C16.0046 52.1818 15.6254 52.0247 15.3458 51.7451C15.0662 51.4655 14.9091 51.0863 14.9091 50.6909V49.9455ZM3.72727 53.6727C3.72727 53.2773 3.88435 52.8981 4.16395 52.6185C4.44355 52.3389 4.82277 52.1818 5.21818 52.1818H13.4182C13.8136 52.1818 14.1928 52.3389 14.4724 52.6185C14.752 52.8981 14.9091 53.2773 14.9091 53.6727V65.6C14.9091 65.9954 14.752 66.3746 14.4724 66.6542C14.1928 66.9338 13.8136 67.0909 13.4182 67.0909H12.6727C12.2773 67.0909 11.8981 66.9338 11.6185 66.6542C11.3389 66.3746 11.1818 65.9954 11.1818 65.6V64.8545C11.1818 64.4591 11.0247 64.0799 10.7451 63.8003C10.4655 63.5207 10.0863 63.3636 9.69091 63.3636H5.21818C4.82277 63.3636 4.44355 63.2066 4.16395 62.927C3.88435 62.6474 3.72727 62.2681 3.72727 61.8727V61.1273C3.72727 60.7319 3.88435 60.3526 4.16395 60.073C4.44355 59.7934 4.82277 59.6364 5.21818 59.6364H5.96364C6.35905 59.6364 6.73827 59.4793 7.01787 59.1997C7.29747 58.9201 7.45455 58.5409 7.45455 58.1455V57.4C7.45455 57.0046 7.29747 56.6254 7.01787 56.3458C6.73827 56.0662 6.35905 55.9091 5.96364 55.9091H5.21818C4.82277 55.9091 4.44355 55.752 4.16395 55.4724C3.88435 55.1928 3.72727 54.8136 3.72727 54.4182V53.6727ZM0 57.4C0 57.0046 0.157077 56.6254 0.436677 56.3458C0.716277 56.0662 1.0955 55.9091 1.49091 55.9091H2.23636C2.63178 55.9091 3.011 56.0662 3.2906 56.3458C3.5702 56.6254 3.72727 57.0046 3.72727 57.4V58.1455C3.72727 58.5409 3.5702 58.9201 3.2906 59.1997C3.011 59.4793 2.63178 59.6364 2.23636 59.6364H1.49091C1.0955 59.6364 0.716277 59.4793 0.436677 59.1997C0.157077 58.9201 0 58.5409 0 58.1455L0 57.4ZM7.45455 68.5818C7.45455 68.1864 7.61162 67.8072 7.89122 67.5276C8.17082 67.248 8.55004 67.0909 8.94545 67.0909H9.69091C10.0863 67.0909 10.4655 67.248 10.7451 67.5276C11.0247 67.8072 11.1818 68.1864 11.1818 68.5818V73.0546C11.1818 73.45 11.3389 73.8292 11.6185 74.1088C11.8981 74.3884 12.2773 74.5455 12.6727 74.5455H13.4182C13.8136 74.5455 14.1928 74.3884 14.4724 74.1088C14.752 73.8292 14.9091 73.45 14.9091 73.0546V68.5818C14.9091 68.1864 15.0662 67.8072 15.3458 67.5276C15.6254 67.248 16.0046 67.0909 16.4 67.0909H24.6C24.9954 67.0909 25.3746 67.248 25.6542 67.5276C25.9338 67.8072 26.0909 68.1864 26.0909 68.5818V69.3273C26.0909 69.7227 25.9338 70.1019 25.6542 70.3815C25.3746 70.6611 24.9954 70.8182 24.6 70.8182H20.1273C19.7319 70.8182 19.3526 70.9753 19.073 71.2549C18.7934 71.5345 18.6364 71.9137 18.6364 72.3091V73.0546C18.6364 73.45 18.7934 73.8292 19.073 74.1088C19.3526 74.3884 19.7319 74.5455 20.1273 74.5455H24.6C24.9954 74.5455 25.3746 74.3884 25.6542 74.1088C25.9338 73.8292 26.0909 73.45 26.0909 73.0546V72.3091C26.0909 71.9137 26.248 71.5345 26.5276 71.2549C26.8072 70.9753 27.1864 70.8182 27.5818 70.8182H28.3273C28.7227 70.8182 29.1019 70.9753 29.3815 71.2549C29.6611 71.5345 29.8182 71.9137 29.8182 72.3091V76.7818C29.8182 77.1772 29.6611 77.5564 29.3815 77.8361C29.1019 78.1157 28.7227 78.2727 28.3273 78.2727H16.4C16.0046 78.2727 15.6254 78.4298 15.3458 78.7094C15.0662 78.989 14.9091 79.3682 14.9091 79.7636V84.2364C14.9091 84.6318 14.752 85.011 14.4724 85.2906C14.1928 85.5702 13.8136 85.7273 13.4182 85.7273H12.6727C12.2773 85.7273 11.8981 85.5702 11.6185 85.2906C11.3389 85.011 11.1818 84.6318 11.1818 84.2364V83.4909C11.1818 83.0955 11.0247 82.7163 10.7451 82.4367C10.4655 82.1571 10.0863 82 9.69091 82H8.94545C8.55004 82 8.17082 82.1571 7.89122 82.4367C7.61162 82.7163 7.45455 83.0955 7.45455 83.4909V84.2364C7.45455 84.6318 7.29747 85.011 7.01787 85.2906C6.73827 85.5702 6.35905 85.7273 5.96364 85.7273H1.49091C1.0955 85.7273 0.716277 85.5702 0.436677 85.2906C0.157077 85.011 0 84.6318 0 84.2364L0 83.4909C0 83.0955 0.157077 82.7163 0.436677 82.4367C0.716277 82.1571 1.0955 82 1.49091 82H2.23636C2.63178 82 3.011 81.8429 3.2906 81.5633C3.5702 81.2837 3.72727 80.9045 3.72727 80.5091V79.7636C3.72727 79.3682 3.5702 78.989 3.2906 78.7094C3.011 78.4298 2.63178 78.2727 2.23636 78.2727H1.49091C1.0955 78.2727 0.716277 78.1157 0.436677 77.8361C0.157077 77.5564 0 77.1772 0 76.7818L0 72.3091C0 71.9137 0.157077 71.5345 0.436677 71.2549C0.716277 70.9753 1.0955 70.8182 1.49091 70.8182H5.96364C6.35905 70.8182 6.73827 70.6611 7.01787 70.3815C7.29747 70.1019 7.45455 69.7227 7.45455 69.3273V68.5818ZM33.5455 79.7636C33.5455 79.3682 33.7025 78.989 33.9821 78.7094C34.2617 78.4298 34.6409 78.2727 35.0364 78.2727H39.5091C39.9045 78.2727 40.2837 78.4298 40.5633 78.7094C40.8429 78.989 41 79.3682 41 79.7636V80.5091C41 80.9045 41.1571 81.2837 41.4367 81.5633C41.7163 81.8429 42.0955 82 42.4909 82H50.6909C51.0863 82 51.4655 82.1571 51.7451 82.4367C52.0247 82.7163 52.1818 83.0955 52.1818 83.4909V84.2364C52.1818 84.6318 52.0247 85.011 51.7451 85.2906C51.4655 85.5702 51.0863 85.7273 50.6909 85.7273H46.2182C45.8228 85.7273 45.4436 85.8843 45.1639 86.1639C44.8843 86.4436 44.7273 86.8228 44.7273 87.2182V87.9636C44.7273 88.3591 44.5702 88.7383 44.2906 89.0179C44.011 89.2975 43.6318 89.4545 43.2364 89.4545H42.4909C42.0955 89.4545 41.7163 89.2975 41.4367 89.0179C41.1571 88.7383 41 88.3591 41 87.9636V87.2182C41 86.8228 40.8429 86.4436 40.5633 86.1639C40.2837 85.8843 39.9045 85.7273 39.5091 85.7273H38.7636C38.3682 85.7273 37.989 85.5702 37.7094 85.2906C37.4298 85.011 37.2727 84.6318 37.2727 84.2364V83.4909C37.2727 83.0955 37.1157 82.7163 36.8361 82.4367C36.5564 82.1571 36.1772 82 35.7818 82H35.0364C34.6409 82 34.2617 81.8429 33.9821 81.5633C33.7025 81.2837 33.5455 80.9045 33.5455 80.5091V79.7636ZM18.6364 83.4909C18.6364 83.0955 18.7934 82.7163 19.073 82.4367C19.3526 82.1571 19.7319 82 20.1273 82H28.3273C28.7227 82 29.1019 82.1571 29.3815 82.4367C29.6611 82.7163 29.8182 83.0955 29.8182 83.4909V84.2364C29.8182 84.6318 29.9753 85.011 30.2549 85.2906C30.5345 85.5702 30.9137 85.7273 31.3091 85.7273H35.7818C36.1772 85.7273 36.5564 85.8843 36.8361 86.1639C37.1157 86.4436 37.2727 86.8228 37.2727 87.2182V87.9636C37.2727 88.3591 37.1157 88.7383 36.8361 89.0179C36.5564 89.2975 36.1772 89.4545 35.7818 89.4545H27.5818C27.1864 89.4545 26.8072 89.2975 26.5276 89.0179C26.248 88.7383 26.0909 88.3591 26.0909 87.9636V87.2182C26.0909 86.8228 25.9338 86.4436 25.6542 86.1639C25.3746 85.8843 24.9954 85.7273 24.6 85.7273H20.1273C19.7319 85.7273 19.3526 85.5702 19.073 85.2906C18.7934 85.011 18.6364 84.6318 18.6364 84.2364V83.4909ZM59.6364 83.4909C59.6364 83.0955 59.7934 82.7163 60.073 82.4367C60.3526 82.1571 60.7319 82 61.1273 82H65.6C65.9954 82 66.3746 82.1571 66.6542 82.4367C66.9338 82.7163 67.0909 83.0955 67.0909 83.4909V84.2364C67.0909 84.6318 66.9338 85.011 66.6542 85.2906C66.3746 85.5702 65.9954 85.7273 65.6 85.7273H61.1273C60.7319 85.7273 60.3526 85.5702 60.073 85.2906C59.7934 85.011 59.6364 84.6318 59.6364 84.2364V83.4909ZM74.5455 83.4909C74.5455 83.0955 74.7025 82.7163 74.9821 82.4367C75.2617 82.1571 75.6409 82 76.0364 82H80.5091C80.9045 82 81.2837 82.1571 81.5633 82.4367C81.8429 82.7163 82 83.0955 82 83.4909V84.2364C82 84.6318 81.8429 85.011 81.5633 85.2906C81.2837 85.5702 80.9045 85.7273 80.5091 85.7273H79.7636C79.3682 85.7273 78.989 85.8843 78.7094 86.1639C78.4298 86.4436 78.2727 86.8228 78.2727 87.2182V87.9636C78.2727 88.3591 78.1157 88.7383 77.8361 89.0179C77.5564 89.2975 77.1772 89.4545 76.7818 89.4545H76.0364C75.6409 89.4545 75.2617 89.2975 74.9821 89.0179C74.7025 88.7383 74.5455 88.3591 74.5455 87.9636V83.4909ZM14.9091 87.2182C14.9091 86.8228 15.0662 86.4436 15.3458 86.1639C15.6254 85.8843 16.0046 85.7273 16.4 85.7273H17.1455C17.5409 85.7273 17.9201 85.8843 18.1997 86.1639C18.4793 86.4436 18.6364 86.8228 18.6364 87.2182V87.9636C18.6364 88.3591 18.4793 88.7383 18.1997 89.0179C17.9201 89.2975 17.5409 89.4545 17.1455 89.4545H16.4C16.0046 89.4545 15.6254 89.2975 15.3458 89.0179C15.0662 88.7383 14.9091 88.3591 14.9091 87.9636V87.2182ZM0 90.9455C0 90.55 0.157077 90.1708 0.436677 89.8912C0.716277 89.6116 1.0955 89.4545 1.49091 89.4545H9.69091C10.0863 89.4545 10.4655 89.6116 10.7451 89.8912C11.0247 90.1708 11.1818 90.55 11.1818 90.9455V91.6909C11.1818 92.0863 11.0247 92.4655 10.7451 92.7451C10.4655 93.0247 10.0863 93.1818 9.69091 93.1818H1.49091C1.0955 93.1818 0.716277 93.0247 0.436677 92.7451C0.157077 92.4655 0 92.0863 0 91.6909L0 90.9455ZM22.3636 90.9455C22.3636 90.55 22.5207 90.1708 22.8003 89.8912C23.0799 89.6116 23.4591 89.4545 23.8545 89.4545H24.6C24.9954 89.4545 25.3746 89.6116 25.6542 89.8912C25.9338 90.1708 26.0909 90.55 26.0909 90.9455V91.6909C26.0909 92.0863 25.9338 92.4655 25.6542 92.7451C25.3746 93.0247 24.9954 93.1818 24.6 93.1818H23.8545C23.4591 93.1818 23.0799 93.0247 22.8003 92.7451C22.5207 92.4655 22.3636 92.0863 22.3636 91.6909V90.9455ZM37.2727 90.9455C37.2727 90.55 37.4298 90.1708 37.7094 89.8912C37.989 89.6116 38.3682 89.4545 38.7636 89.4545H39.5091C39.9045 89.4545 40.2837 89.6116 40.5633 89.8912C40.8429 90.1708 41 90.55 41 90.9455V91.6909C41 92.0863 40.8429 92.4655 40.5633 92.7451C40.2837 93.0247 39.9045 93.1818 39.5091 93.1818H38.7636C38.3682 93.1818 37.989 93.0247 37.7094 92.7451C37.4298 92.4655 37.2727 92.0863 37.2727 91.6909V90.9455ZM70.8182 90.9455C70.8182 90.55 70.9753 90.1708 71.2549 89.8912C71.5345 89.6116 71.9137 89.4545 72.3091 89.4545H73.0546C73.45 89.4545 73.8292 89.6116 74.1088 89.8912C74.3884 90.1708 74.5455 90.55 74.5455 90.9455V91.6909C74.5455 92.0863 74.3884 92.4655 74.1088 92.7451C73.8292 93.0247 73.45 93.1818 73.0546 93.1818H72.3091C71.9137 93.1818 71.5345 93.0247 71.2549 92.7451C70.9753 92.4655 70.8182 92.0863 70.8182 91.6909V90.9455ZM29.8182 94.6727C29.8182 94.2773 29.9753 93.8981 30.2549 93.6185C30.5345 93.3389 30.9137 93.1818 31.3091 93.1818H35.7818C36.1772 93.1818 36.5564 93.3389 36.8361 93.6185C37.1157 93.8981 37.2727 94.2773 37.2727 94.6727V95.4182C37.2727 95.8136 37.4298 96.1928 37.7094 96.4724C37.989 96.752 38.3682 96.9091 38.7636 96.9091H39.5091C39.9045 96.9091 40.2837 96.752 40.5633 96.4724C40.8429 96.1928 41 95.8136 41 95.4182V94.6727C41 94.2773 41.1571 93.8981 41.4367 93.6185C41.7163 93.3389 42.0955 93.1818 42.4909 93.1818H46.9636C47.3591 93.1818 47.7383 93.3389 48.0179 93.6185C48.2975 93.8981 48.4545 94.2773 48.4545 94.6727V95.4182C48.4545 95.8136 48.2975 96.1928 48.0179 96.4724C47.7383 96.752 47.3591 96.9091 46.9636 96.9091H46.2182C45.8228 96.9091 45.4436 97.0662 45.1639 97.3458C44.8843 97.6254 44.7273 98.0046 44.7273 98.4V99.1455C44.7273 99.5409 44.8843 99.9201 45.1639 100.2C45.4436 100.479 45.8228 100.636 46.2182 100.636H46.9636C47.3591 100.636 47.7383 100.793 48.0179 101.073C48.2975 101.353 48.4545 101.732 48.4545 102.127V102.873C48.4545 103.268 48.2975 103.647 48.0179 103.927C47.7383 104.207 47.3591 104.364 46.9636 104.364H42.4909C42.0955 104.364 41.7163 104.521 41.4367 104.8C41.1571 105.08 41 105.459 41 105.855V106.6C41 106.995 41.1571 107.375 41.4367 107.654C41.7163 107.934 42.0955 108.091 42.4909 108.091H43.2364C43.6318 108.091 44.011 108.248 44.2906 108.528C44.5702 108.807 44.7273 109.186 44.7273 109.582V114.055C44.7273 114.45 44.5702 114.829 44.2906 115.109C44.011 115.388 43.6318 115.545 43.2364 115.545H42.4909C42.0955 115.545 41.7163 115.703 41.4367 115.982C41.1571 116.262 41 116.641 41 117.036V117.782C41 118.177 40.8429 118.556 40.5633 118.836C40.2837 119.116 39.9045 119.273 39.5091 119.273H38.7636C38.3682 119.273 37.989 119.116 37.7094 118.836C37.4298 118.556 37.2727 118.177 37.2727 117.782V105.855C37.2727 105.459 37.1157 105.08 36.8361 104.8C36.5564 104.521 36.1772 104.364 35.7818 104.364H31.3091C30.9137 104.364 30.5345 104.207 30.2549 103.927C29.9753 103.647 29.8182 103.268 29.8182 102.873V94.6727ZM48.4545 98.4C48.4545 98.0046 48.6116 97.6254 48.8912 97.3458C49.1708 97.0662 49.55 96.9091 49.9455 96.9091H50.6909C51.0863 96.9091 51.4655 97.0662 51.7451 97.3458C52.0247 97.6254 52.1818 98.0046 52.1818 98.4V99.1455C52.1818 99.5409 52.0247 99.9201 51.7451 100.2C51.4655 100.479 51.0863 100.636 50.6909 100.636H49.9455C49.55 100.636 49.1708 100.479 48.8912 100.2C48.6116 99.9201 48.4545 99.5409 48.4545 99.1455V98.4ZM96.9091 98.4C96.9091 98.0046 97.0662 97.6254 97.3458 97.3458C97.6254 97.0662 98.0046 96.9091 98.4 96.9091H99.1455C99.5409 96.9091 99.9201 97.0662 100.2 97.3458C100.479 97.6254 100.636 98.0046 100.636 98.4V99.1455C100.636 99.5409 100.479 99.9201 100.2 100.2C99.9201 100.479 99.5409 100.636 99.1455 100.636H98.4C98.0046 100.636 97.6254 100.479 97.3458 100.2C97.0662 99.9201 96.9091 99.5409 96.9091 99.1455V98.4ZM52.1818 102.127C52.1818 101.732 52.3389 101.353 52.6185 101.073C52.8981 100.793 53.2773 100.636 53.6727 100.636H54.4182C54.8136 100.636 55.1928 100.793 55.4724 101.073C55.752 101.353 55.9091 101.732 55.9091 102.127V102.873C55.9091 103.268 55.752 103.647 55.4724 103.927C55.1928 104.207 54.8136 104.364 54.4182 104.364H53.6727C53.2773 104.364 52.8981 104.207 52.6185 103.927C52.3389 103.647 52.1818 103.268 52.1818 102.873V102.127ZM70.8182 102.127C70.8182 101.732 70.9753 101.353 71.2549 101.073C71.5345 100.793 71.9137 100.636 72.3091 100.636H73.0546C73.45 100.636 73.8292 100.793 74.1088 101.073C74.3884 101.353 74.5455 101.732 74.5455 102.127V102.873C74.5455 103.268 74.3884 103.647 74.1088 103.927C73.8292 104.207 73.45 104.364 73.0546 104.364H72.3091C71.9137 104.364 71.5345 104.207 71.2549 103.927C70.9753 103.647 70.8182 103.268 70.8182 102.873V102.127ZM48.4545 105.855C48.4545 105.459 48.6116 105.08 48.8912 104.8C49.1708 104.521 49.55 104.364 49.9455 104.364H50.6909C51.0863 104.364 51.4655 104.521 51.7451 104.8C52.0247 105.08 52.1818 105.459 52.1818 105.855V106.6C52.1818 106.995 52.0247 107.375 51.7451 107.654C51.4655 107.934 51.0863 108.091 50.6909 108.091H49.9455C49.55 108.091 49.1708 107.934 48.8912 107.654C48.6116 107.375 48.4545 106.995 48.4545 106.6V105.855ZM115.545 109.582C115.545 109.186 115.703 108.807 115.982 108.528C116.262 108.248 116.641 108.091 117.036 108.091H117.782C118.177 108.091 118.556 108.248 118.836 108.528C119.116 108.807 119.273 109.186 119.273 109.582V110.327C119.273 110.723 119.43 111.102 119.709 111.382C119.989 111.661 120.368 111.818 120.764 111.818H121.509C121.905 111.818 122.284 111.975 122.563 112.255C122.843 112.534 123 112.914 123 113.309V114.055C123 114.45 122.843 114.829 122.563 115.109C122.284 115.388 121.905 115.545 121.509 115.545H113.309C112.914 115.545 112.534 115.388 112.255 115.109C111.975 114.829 111.818 114.45 111.818 114.055V113.309C111.818 112.914 111.975 112.534 112.255 112.255C112.534 111.975 112.914 111.818 113.309 111.818H114.055C114.45 111.818 114.829 111.661 115.109 111.382C115.388 111.102 115.545 110.723 115.545 110.327V109.582ZM29.8182 113.309C29.8182 112.914 29.9753 112.534 30.2549 112.255C30.5345 111.975 30.9137 111.818 31.3091 111.818H32.0545C32.45 111.818 32.8292 111.975 33.1088 112.255C33.3884 112.534 33.5455 112.914 33.5455 113.309V114.055C33.5455 114.45 33.3884 114.829 33.1088 115.109C32.8292 115.388 32.45 115.545 32.0545 115.545H31.3091C30.9137 115.545 30.5345 115.388 30.2549 115.109C29.9753 114.829 29.8182 114.45 29.8182 114.055V113.309ZM85.7273 113.309C85.7273 112.914 85.8843 112.534 86.1639 112.255C86.4436 111.975 86.8228 111.818 87.2182 111.818H91.6909C92.0863 111.818 92.4655 111.975 92.7451 112.255C93.0247 112.534 93.1818 112.914 93.1818 113.309V114.055C93.1818 114.45 93.3389 114.829 93.6185 115.109C93.8981 115.388 94.2773 115.545 94.6727 115.545H99.1455C99.5409 115.545 99.9201 115.703 100.2 115.982C100.479 116.262 100.636 116.641 100.636 117.036V117.782C100.636 118.177 100.479 118.556 100.2 118.836C99.9201 119.116 99.5409 119.273 99.1455 119.273H94.6727C94.2773 119.273 93.8981 119.43 93.6185 119.709C93.3389 119.989 93.1818 120.368 93.1818 120.764V121.509C93.1818 121.905 93.0247 122.284 92.7451 122.563C92.4655 122.843 92.0863 123 91.6909 123H90.9455C90.55 123 90.1708 122.843 89.8912 122.563C89.6116 122.284 89.4545 121.905 89.4545 121.509V117.036C89.4545 116.641 89.2975 116.262 89.0179 115.982C88.7383 115.703 88.3591 115.545 87.9636 115.545H87.2182C86.8228 115.545 86.4436 115.388 86.1639 115.109C85.8843 114.829 85.7273 114.45 85.7273 114.055V113.309ZM74.5455 117.036C74.5455 116.641 74.7025 116.262 74.9821 115.982C75.2617 115.703 75.6409 115.545 76.0364 115.545H80.5091C80.9045 115.545 81.2837 115.703 81.5633 115.982C81.8429 116.262 82 116.641 82 117.036V121.509C82 121.905 81.8429 122.284 81.5633 122.563C81.2837 122.843 80.9045 123 80.5091 123H76.0364C75.6409 123 75.2617 122.843 74.9821 122.563C74.7025 122.284 74.5455 121.905 74.5455 121.509V117.036ZM33.5455 120.764C33.5455 120.368 33.7025 119.989 33.9821 119.709C34.2617 119.43 34.6409 119.273 35.0364 119.273H35.7818C36.1772 119.273 36.5564 119.43 36.8361 119.709C37.1157 119.989 37.2727 120.368 37.2727 120.764V121.509C37.2727 121.905 37.1157 122.284 36.8361 122.563C36.5564 122.843 36.1772 123 35.7818 123H35.0364C34.6409 123 34.2617 122.843 33.9821 122.563C33.7025 122.284 33.5455 121.905 33.5455 121.509V120.764ZM44.7273 120.764C44.7273 120.368 44.8843 119.989 45.1639 119.709C45.4436 119.43 45.8228 119.273 46.2182 119.273H46.9636C47.3591 119.273 47.7383 119.43 48.0179 119.709C48.2975 119.989 48.4545 120.368 48.4545 120.764V121.509C48.4545 121.905 48.2975 122.284 48.0179 122.563C47.7383 122.843 47.3591 123 46.9636 123H46.2182C45.8228 123 45.4436 122.843 45.1639 122.563C44.8843 122.284 44.7273 121.905 44.7273 121.509V120.764ZM104.364 120.764C104.364 120.368 104.521 119.989 104.8 119.709C105.08 119.43 105.459 119.273 105.855 119.273H106.6C106.995 119.273 107.375 119.43 107.654 119.709C107.934 119.989 108.091 120.368 108.091 120.764V121.509C108.091 121.905 107.934 122.284 107.654 122.563C107.375 122.843 106.995 123 106.6 123H105.855C105.459 123 105.08 122.843 104.8 122.563C104.521 122.284 104.364 121.905 104.364 121.509V120.764ZM111.818 120.764C111.818 120.368 111.975 119.989 112.255 119.709C112.534 119.43 112.914 119.273 113.309 119.273H114.055C114.45 119.273 114.829 119.43 115.109 119.709C115.388 119.989 115.545 120.368 115.545 120.764V121.509C115.545 121.905 115.388 122.284 115.109 122.563C114.829 122.843 114.45 123 114.055 123H113.309C112.914 123 112.534 122.843 112.255 122.563C111.975 122.284 111.818 121.905 111.818 121.509V120.764ZM119.273 120.764C119.273 120.368 119.43 119.989 119.709 119.709C119.989 119.43 120.368 119.273 120.764 119.273H121.509C121.905 119.273 122.284 119.43 122.563 119.709C122.843 119.989 123 120.368 123 120.764V121.509C123 121.905 122.843 122.284 122.563 122.563C122.284 122.843 121.905 123 121.509 123H120.764C120.368 123 119.989 122.843 119.709 122.563C119.43 122.284 119.273 121.905 119.273 121.509V120.764Z" fill="#111111"/>
<path fill-rule="evenodd" clip-rule="evenodd" d="M3.91364 0H22.1773C23.2152 0 24.2107 0.412328 24.9446 1.14628C25.6786 1.88023 26.0909 2.87568 26.0909 3.91364V22.1773C26.0909 23.2152 25.6786 24.2107 24.9446 24.9446C24.2107 25.6786 23.2152 26.0909 22.1773 26.0909H3.91364C2.87568 26.0909 1.88023 25.6786 1.14628 24.9446C0.412328 24.2107 0 23.2152 0 22.1773L0 3.91364C0 2.87568 0.412328 1.88023 1.14628 1.14628C1.88023 0.412328 2.87568 0 3.91364 0ZM6.52273 3.72727H19.5682C20.3096 3.72727 21.0206 4.02179 21.5449 4.54604C22.0691 5.07029 22.3636 5.78133 22.3636 6.52273V19.5682C22.3636 20.3096 22.0691 21.0206 21.5449 21.5449C21.0206 22.0691 20.3096 22.3636 19.5682 22.3636H6.52273C5.78133 22.3636 5.07029 22.0691 4.54604 21.5449C4.02179 21.0206 3.72727 20.3096 3.72727 19.5682V6.52273C3.72727 5.78133 4.02179 5.07029 4.54604 4.54604C5.07029 4.02179 5.78133 3.72727 6.52273 3.72727ZM9.13182 7.45455H16.9591C17.1794 7.45455 17.3975 7.49793 17.601 7.58222C17.8045 7.66651 17.9894 7.79006 18.1451 7.94581C18.3008 8.10156 18.4244 8.28646 18.5087 8.48995C18.593 8.69345 18.6364 8.91156 18.6364 9.13182V16.9591C18.6364 17.1794 18.593 17.3975 18.5087 17.601C18.4244 17.8045 18.3008 17.9894 18.1451 18.1451C17.9894 18.3008 17.8045 18.4244 17.601 18.5087C17.3975 18.593 17.1794 18.6364 16.9591 18.6364H9.13182C8.91156 18.6364 8.69345 18.593 8.48995 18.5087C8.28646 18.4244 8.10156 18.3008 7.94581 18.1451C7.79006 17.9894 7.66651 17.8045 7.58222 17.601C7.49793 17.3975 7.45455 17.1794 7.45455 16.9591V9.13182C7.45455 8.91156 7.49793 8.69345 7.58222 8.48995C7.66651 8.28646 7.79006 8.10156 7.94581 7.94581C8.10156 7.79006 8.28646 7.66651 8.48995 7.58222C8.69345 7.49793 8.91156 7.45455 9.13182 7.45455ZM100.823 0H119.086C120.124 0 121.12 0.412328 121.854 1.14628C122.588 1.88023 123 2.87568 123 3.91364V22.1773C123 23.2152 122.588 24.2107 121.854 24.9446C121.12 25.6786 120.124 26.0909 119.086 26.0909H100.823C99.7848 26.0909 98.7893 25.6786 98.0554 24.9446C97.3214 24.2107 96.9091 23.2152 96.9091 22.1773V3.91364C96.9091 2.87568 97.3214 1.88023 98.0554 1.14628C98.7893 0.412328 99.7848 0 100.823 0ZM103.432 3.72727H116.477C117.219 3.72727 117.93 4.02179 118.454 4.54604C118.978 5.07029 119.273 5.78133 119.273 6.52273V19.5682C119.273 20.3096 118.978 21.0206 118.454 21.5449C117.93 22.0691 117.219 22.3636 116.477 22.3636H103.432C102.69 22.3636 101.979 22.0691 101.455 21.5449C100.931 21.0206 100.636 20.3096 100.636 19.5682V6.52273C100.636 5.78133 100.931 5.07029 101.455 4.54604C101.979 4.02179 102.69 3.72727 103.432 3.72727ZM106.041 7.45455H113.868C114.313 7.45455 114.74 7.63126 115.054 7.94581C115.369 8.26036 115.545 8.68698 115.545 9.13182V16.9591C115.545 17.4039 115.369 17.8306 115.054 18.1451C114.74 18.4597 114.313 18.6364 113.868 18.6364H106.041C105.596 18.6364 105.169 18.4597 104.855 18.1451C104.54 17.8306 104.364 17.4039 104.364 16.9591V9.13182C104.364 8.68698 104.54 8.26036 104.855 7.94581C105.169 7.63126 105.596 7.45455 106.041 7.45455ZM3.91364 96.9091H22.1773C22.6912 96.9091 23.2001 97.0103 23.675 97.207C24.1498 97.4037 24.5812 97.6919 24.9446 98.0554C25.308 98.4188 25.5963 98.8502 25.793 99.325C25.9897 99.7999 26.0909 100.309 26.0909 100.823V119.086C26.0909 120.124 25.6786 121.12 24.9446 121.854C24.2107 122.588 23.2152 123 22.1773 123H3.91364C2.87568 123 1.88023 122.588 1.14628 121.854C0.412328 121.12 0 120.124 0 119.086L0 100.823C0 99.7848 0.412328 98.7893 1.14628 98.0554C1.88023 97.3214 2.87568 96.9091 3.91364 96.9091ZM6.52273 100.636H19.5682C20.3096 100.636 21.0206 100.931 21.5449 101.455C22.0691 101.979 22.3636 102.69 22.3636 103.432V116.477C22.3636 117.219 22.0691 117.93 21.5449 118.454C21.0206 118.978 20.3096 119.273 19.5682 119.273H6.52273C5.78133 119.273 5.07029 118.978 4.54604 118.454C4.02179 117.93 3.72727 117.219 3.72727 116.477V103.432C3.72727 102.69 4.02179 101.979 4.54604 101.455C5.07029 100.931 5.78133 100.636 6.52273 100.636ZM9.13182 104.364H16.9591C17.4039 104.364 17.8306 104.54 18.1451 104.855C18.4597 105.169 18.6364 105.596 18.6364 106.041V113.868C18.6364 114.313 18.4597 114.74 18.1451 115.054C17.8306 115.369 17.4039 115.545 16.9591 115.545H9.13182C8.68698 115.545 8.26036 115.369 7.94581 115.054C7.63126 114.74 7.45455 114.313 7.45455 113.868V106.041C7.45455 105.596 7.63126 105.169 7.94581 104.855C8.26036 104.54 8.68698 104.364 9.13182 104.364Z" fill="#111111"/>
<path d="M70.8795 61.1114C70.8433 57.1856 74.1798 55.2757 74.3324 55.1867C72.4428 52.5034 69.5139 52.1367 68.4847 52.1075C66.0247 51.8553 63.6386 53.5411 62.3855 53.5411C61.1074 53.5411 59.1778 52.1318 57.0981 52.1733C54.4218 52.2135 51.9181 53.7226 50.545 56.0662C47.7111 60.8447 49.8246 67.8668 52.5397 71.7293C53.8978 73.6209 55.4848 75.7331 57.562 75.6588C59.5942 75.5771 60.3533 74.3968 62.8057 74.3968C65.2356 74.3968 65.9485 75.6588 68.067 75.6112C70.248 75.5771 71.6211 73.7111 72.9317 71.8024C74.5012 69.6342 75.1315 67.4989 75.1565 67.3893C75.1053 67.3723 70.9208 65.8168 70.8795 61.1114Z" fill="#111111"/>
<path d="M66.8777 49.5666C67.9707 48.2353 68.7185 46.424 68.5109 44.5859C66.9289 44.6541 64.9505 45.6517 63.8112 46.9539C62.8032 48.1013 61.9028 49.982 62.1354 51.7506C63.9125 51.8797 65.7371 50.8772 66.8777 49.5666Z" fill="#111111"/>
</svg>
