<svg width="54" height="58" viewBox="0 0 54 58" fill="none" xmlns="http://www.w3.org/2000/svg">
<g id="G3">
<path id="Vector" d="M26.9796 56.9984C34.6811 56.9984 40.9245 50.7255 40.9245 42.9875C40.9245 35.2494 34.6811 28.9766 26.9796 28.9766C19.278 28.9766 13.0347 35.2494 13.0347 42.9875C13.0347 50.7255 19.278 56.9984 26.9796 56.9984Z" stroke="#111111" stroke-width="1.792" stroke-miterlimit="10"/>
<path id="Vector_2" d="M26.9796 29.0218C34.6811 29.0218 40.9245 22.7489 40.9245 15.0109C40.9245 7.27289 34.6811 0.999992 26.9796 0.999992C19.278 0.999992 13.0347 7.27289 13.0347 15.0109C13.0347 22.7489 19.278 29.0218 26.9796 29.0218Z" stroke="#111111" stroke-width="1.792" stroke-miterlimit="10"/>
<path id="Vector_3" d="M39.0591 36.0062C46.7606 36.0062 53.0039 29.7333 53.0039 21.9953C53.0039 14.2573 46.7606 7.98437 39.0591 7.98437C31.3575 7.98437 25.1142 14.2573 25.1142 21.9953C25.1142 29.7333 31.3575 36.0062 39.0591 36.0062Z" stroke="#111111" stroke-width="1.792" stroke-miterlimit="10"/>
<path id="Vector_4" d="M14.9467 50.0179C22.6483 50.0179 28.8916 43.745 28.8916 36.007C28.8916 28.269 22.6483 21.9961 14.9467 21.9961C7.24521 21.9961 1.00189 28.269 1.00189 36.007C1.00189 43.745 7.24521 50.0179 14.9467 50.0179Z" stroke="#111111" stroke-width="1.792" stroke-miterlimit="10"/>
<path id="Vector_5" d="M14.9467 36.0062C22.6483 36.0062 28.8916 29.7333 28.8916 21.9953C28.8916 14.2573 22.6483 7.98437 14.9467 7.98437C7.24521 7.98437 1.00189 14.2573 1.00189 21.9953C1.00189 29.7333 7.24521 36.0062 14.9467 36.0062Z" stroke="#111111" stroke-width="1.792" stroke-miterlimit="10"/>
<path id="Vector_6" d="M39.0591 50.0179C46.7606 50.0179 53.0039 43.745 53.0039 36.007C53.0039 28.269 46.7606 21.9961 39.0591 21.9961C31.3575 21.9961 25.1142 28.269 25.1142 36.007C25.1142 43.745 31.3575 50.0179 39.0591 50.0179Z" stroke="#111111" stroke-width="1.792" stroke-miterlimit="10"/>
</g>
</svg>
