<svg width="56" height="56" viewBox="0 0 56 56" fill="none" xmlns="http://www.w3.org/2000/svg">
<g id="H3">
<path id="Vector" d="M56.0002 26.636H50.718V29.3219H56.0002V26.636Z" fill="#111111"/>
<path id="Vector_2" d="M5.28146 26.636H-0.000732422V29.3219H5.28146V26.636Z" fill="#111111"/>
<path id="Vector_3" d="M29.3648 0.0461693H26.679V5.32835H29.3648V0.0461693Z" fill="#111111"/>
<path id="Vector_4" d="M29.3648 50.718H26.679V56.0002H29.3648V50.718Z" fill="#111111"/>
<path id="Vector_5" d="M9.14453 7.2681L7.24536 9.16726L10.9804 12.9023L12.8796 11.0031L9.14453 7.2681Z" fill="#111111"/>
<path id="Vector_6" d="M45.0078 43.104L43.1086 45.0032L46.8437 48.7382L48.7428 46.8391L45.0078 43.104Z" fill="#111111"/>
<path id="Vector_7" d="M10.9843 43.1002L7.24927 46.8352L9.14843 48.7344L12.8834 44.9994L10.9843 43.1002Z" fill="#111111"/>
<path id="Vector_8" d="M46.8202 7.23695L43.0852 10.972L44.9844 12.8711L48.7194 9.13612L46.8202 7.23695Z" fill="#111111"/>
<path id="Vector_9" d="M31.3329 28.4693C31.4224 27.6635 31.2881 26.9025 30.8852 26.2758C29.9452 24.6643 29.3185 22.8738 29.3185 20.9937V-0.000705719H26.6326V20.8594C26.6326 22.6947 26.185 24.53 25.1554 26.0968C24.7973 26.634 24.5735 27.2607 24.5735 27.9769C24.5735 29.9913 26.3193 31.558 28.3784 31.3342C29.9004 31.1999 31.1538 29.9913 31.3329 28.4693Z" fill="#111111"/>
</g>
</svg>
