<svg width="56" height="56" viewBox="0 0 56 56" fill="none" xmlns="http://www.w3.org/2000/svg">
<g id="H4">
<path id="Vector" d="M0.224062 22.7422H2.65537V13.2972C2.65537 10.5774 3.96815 7.93021 5.93753 5.96668C7.90683 4.00325 10.5538 2.70227 13.2503 2.70227H22.7401V0.270963H13.295C6.07744 0.270963 0.224062 6.12431 0.224062 13.3419V22.7422Z" fill="#111111" stroke="#111111" stroke-width="0.448"/>
<path id="Vector_2" d="M55.7752 22.7422H53.3439V13.2971C53.3439 10.5773 52.0311 7.93018 50.0617 5.96666C48.0924 4.00322 45.4454 2.70224 42.749 2.70224H33.2592V0.270936H42.7042C49.9218 0.270936 55.7752 6.12429 55.7752 13.3419V22.7422Z" fill="#111111" stroke="#111111" stroke-width="0.448"/>
<path id="Vector_3" d="M0.22481 33.3061H2.65611V42.7511C2.65611 45.4709 3.96889 48.1181 5.93828 50.0816C7.90758 52.0451 10.5546 53.346 13.251 53.346H22.7408V55.7773H13.2958C6.07819 55.7773 0.22481 49.924 0.22481 42.7064V33.3061Z" fill="#111111" stroke="#111111" stroke-width="0.448"/>
<path id="Vector_4" d="M55.7752 33.3061H53.3439V42.7511C53.3439 45.4709 52.0311 48.1181 50.0617 50.0816C48.0924 52.0451 45.4454 53.346 42.749 53.346H33.2592V55.7773H42.7042C49.9218 55.7773 55.7752 49.924 55.7752 42.7064V33.3061Z" fill="#111111" stroke="#111111" stroke-width="0.448"/>
</g>
</svg>
