<svg width="84" height="84" viewBox="0 0 84 84" fill="none" xmlns="http://www.w3.org/2000/svg">
<g id="Frame 135">
<rect width="84" height="84" rx="21" fill="#C0E809"/>
<path id="Arrow 1" d="M24.9375 40.6875C24.2126 40.6875 23.625 41.2751 23.625 42C23.625 42.7249 24.2126 43.3125 24.9375 43.3125V40.6875ZM59.9906 42.9281C60.5031 42.4155 60.5031 41.5845 59.9906 41.0719L51.6379 32.7192C51.1253 32.2067 50.2943 32.2067 49.7817 32.7192C49.2692 33.2318 49.2692 34.0628 49.7817 34.5754L57.2063 42L49.7817 49.4246C49.2692 49.9372 49.2692 50.7682 49.7817 51.2808C50.2943 51.7933 51.1253 51.7933 51.6379 51.2808L59.9906 42.9281ZM24.9375 43.3125H59.0625V40.6875H24.9375V43.3125Z" fill="#111111"/>
</g>
</svg>
