<svg width="149" height="24" viewBox="0 0 149 24" fill="none" xmlns="http://www.w3.org/2000/svg">
<g id="Frame 20">
<g id="Group">
<path id="Vector" d="M50.0211 13.6425H62.5908V9.78781H50.0211V3.85473H63.3954V0H44.6914V23.4635H63.5967V19.6088H50.0211V13.6425Z" fill="white"/>
<path id="Vector_2" d="M91.5828 14.1453C91.5828 15.7095 91.2416 16.9276 90.5605 17.7987C89.8787 18.6703 88.9348 19.1061 87.728 19.1061C86.5213 19.1061 85.5376 18.6703 84.8456 17.7987C84.1524 16.9271 83.8064 15.7095 83.8064 14.1453V0H78.5104V14.1453C78.5104 15.6872 78.1638 16.8999 77.4712 17.7824C76.7781 18.6654 75.8396 19.1066 74.6557 19.1066C73.4718 19.1066 72.499 18.6654 71.8064 17.7824C71.1132 16.8999 70.7672 15.6872 70.7672 14.1453V0H65.4375V13.3406C65.4375 16.6926 66.2471 19.3069 67.8679 21.1844C69.4876 23.0615 71.7503 24 74.6557 24C76.2645 24 77.6557 23.6028 78.8287 22.8101C80.0017 22.0174 80.7895 20.9831 81.1916 19.7095C81.5936 20.9831 82.3815 22.0169 83.5545 22.8101C84.7275 23.6028 86.1187 24 87.7275 24C90.5877 24 92.8336 23.0615 94.4647 21.1844C96.0958 19.3074 96.9114 16.6926 96.9114 13.3406V0H91.5817V14.1453H91.5828Z" fill="white"/>
<path id="Vector_3" d="M114.378 9.68716H104.088V0H98.7578V23.4635H104.088V13.7764H114.378V23.4635H119.674V0H114.378V9.68716Z" fill="white"/>
<path id="Vector_4" d="M126.845 0H121.516V23.4635H126.845V0Z" fill="white"/>
<path id="Vector_5" d="M146.859 2.32971C145.496 0.776931 143.608 0 141.194 0H128.691V23.4635H134.021V17.5642H141.194C143.608 17.5642 145.496 16.7933 146.859 15.2514C148.222 13.7095 148.904 11.5642 148.904 8.81556C148.904 6.06692 148.222 3.88302 146.859 2.32971ZM142.485 12.4189C141.758 13.2797 140.736 13.7095 139.418 13.7095H134.021V3.85473H139.418C140.714 3.85473 141.731 4.29053 142.468 5.16213C143.205 6.03373 143.574 7.2519 143.574 8.81556C143.574 10.3792 143.21 11.5588 142.485 12.4189Z" fill="white"/>
<path id="Vector_6" d="M41.6226 13.9608C42.4382 12.5196 42.8462 10.8047 42.8462 8.81556C42.8462 6.04516 42.1645 3.88302 40.8016 2.32971C39.4382 0.776931 37.5502 0 35.1367 0H25.8984V6.81774H31.06V3.84984C31.06 3.46953 31.313 3.2247 31.5241 3.40044L34.5421 5.90533L37.4828 8.34603C37.7107 8.53536 37.7107 9.0555 37.4828 9.24483L34.5421 11.6855L31.5241 14.1904C31.3125 14.3662 31.06 14.1213 31.06 13.741V10.7731H25.8984V23.4635H31.2281V17.5642H33.2265L37.4164 23.4635H42.8468L38.0198 16.8939C39.6063 16.3803 40.807 15.4021 41.6231 13.9608H41.6226Z" fill="white"/>
</g>
<g id="Clip path group">
<mask id="mask0_271_2911" style="mask-type:luminance" maskUnits="userSpaceOnUse" x="0" y="0" width="24" height="24">
<g id="clippath">
<path id="Vector_7" d="M20.0462 0H3.35147C1.5005 0 0 1.5005 0 3.35147V20.0462C0 21.8972 1.5005 23.3977 3.35147 23.3977H20.0462C21.8972 23.3977 23.3977 21.8972 23.3977 20.0462V3.35147C23.3977 1.5005 21.8972 0 20.0462 0Z" fill="white"/>
</g>
</mask>
<g mask="url(#mask0_271_2911)">
<path id="Union" fill-rule="evenodd" clip-rule="evenodd" d="M4.8627 13.9956C11.3371 8.76442 18.3377 7.10609 23.3899 6.80305V3.50435C23.3899 1.5691 21.8213 0 19.8861 0H3.49654C1.56128 0 -0.0078125 1.5691 -0.0078125 3.50435V19.2954C1.29904 17.5843 2.90296 15.5789 4.8627 13.9956ZM15.5706 15.1952C12.9493 18.4645 12.5624 21.563 12.5913 23.3976H19.8845C21.8198 23.3976 23.3889 21.8285 23.3889 19.8932V11.0156C21.0804 11.4117 17.8051 12.4084 15.5711 15.1946L15.5706 15.1952ZM28.0772 8.61185C27.5238 8.63035 26.9716 8.66789 26.4199 8.71414L26.433 8.84036C26.9809 8.7729 27.5298 8.71468 28.0804 8.67496C28.631 8.63688 29.1838 8.61403 29.7355 8.64994C29.1854 8.59335 28.6299 8.59499 28.0772 8.61185ZM22.9292 9.10002C23.1333 9.07826 23.3318 9.05432 23.5353 9.02875L24.0653 8.96286C24.1087 8.95746 24.1484 8.98794 24.1544 9.03128L24.1623 9.08796C24.1682 9.13098 24.1388 9.1709 24.0959 9.17789L23.5696 9.26379C23.3694 9.29752 23.1637 9.32908 22.9624 9.35846C22.5582 9.41776 22.1556 9.47706 21.7546 9.54398C20.979 9.67177 20.2079 9.82242 19.4454 10.0028C19.4018 10.0131 19.3582 9.98582 19.3486 9.94212L19.2988 9.71605C19.2892 9.67234 19.3172 9.62922 19.3611 9.62051C20.1406 9.46588 20.9245 9.34251 21.7105 9.24203C22.1169 9.1898 22.5239 9.14464 22.9292 9.10002ZM14.71 11.0196L14.7098 11.0199C13.9894 11.3302 13.2865 11.6882 12.615 12.1054C12.5516 12.1448 12.5337 12.2287 12.5749 12.2909L12.7875 12.6127C12.8286 12.675 12.9128 12.6913 12.9747 12.6497C13.5982 12.2304 14.2599 11.8621 14.944 11.5372C15.6306 11.2114 16.34 10.929 17.0632 10.682C17.132 10.6585 17.1697 10.5845 17.1479 10.5152L17.0828 10.3084C17.061 10.2391 16.9877 10.2 16.9181 10.2209C16.17 10.4456 15.4316 10.7085 14.7103 11.0192L14.71 11.0196ZM8.78369 15.2519L8.78357 15.2516C8.78342 15.2515 8.78341 15.2512 8.78356 15.2511C9.30648 14.6898 9.86547 14.1651 10.4513 13.676C10.5405 13.6016 10.6727 13.6137 10.748 13.702L10.9692 13.9617C11.0443 14.0498 11.0353 14.1818 10.9498 14.2599C10.411 14.7527 9.90238 15.2762 9.43237 15.8297C8.965 16.3801 8.53531 16.9601 8.14861 17.5656C8.08418 17.6664 7.94993 17.6966 7.84959 17.6313L7.39395 17.335C7.29356 17.2697 7.26645 17.1345 7.33533 17.0366C7.77735 16.4081 8.26231 15.8117 8.78358 15.2522L8.78369 15.2519ZM5.51722 20.413L5.5176 20.4128L5.51797 20.4125C5.64219 20.1016 5.7753 19.7943 5.91622 19.4909C5.9775 19.3589 6.13418 19.3026 6.26637 19.3634L6.77745 19.5983C6.90859 19.6586 6.96776 19.8122 6.91312 19.9458C6.79661 20.2307 6.68753 20.5183 6.58642 20.8089C6.45802 21.1821 6.34377 21.5597 6.24148 21.9411C6.13865 22.3225 6.04943 22.7082 5.96727 23.0994C5.92981 23.2748 5.89518 23.4502 5.85997 23.6285L5.85996 23.6285L5.85996 23.6285L5.85994 23.6286L5.85992 23.6287L5.85987 23.629C5.83318 23.7641 5.80616 23.9009 5.77733 24.0407C5.74699 24.1878 5.59996 24.2788 5.45426 24.2425L4.7167 24.0585C4.57193 24.0224 4.48493 23.8745 4.52147 23.7299C4.55217 23.6083 4.58264 23.4838 4.61348 23.3578L4.6135 23.3577L4.61351 23.3577L4.61351 23.3577L4.61352 23.3576L4.61356 23.3575C4.65744 23.1782 4.70206 22.9959 4.7491 22.8148C4.85247 22.4111 4.96618 22.0064 5.09404 21.6048C5.22187 21.2034 5.36221 20.8058 5.51722 20.413Z" fill="url(#paint0_linear_271_2911)"/>
</g>
</g>
</g>
<defs>
<linearGradient id="paint0_linear_271_2911" x1="-0.0078125" y1="0" x2="22.9945" y2="23.2399" gradientUnits="userSpaceOnUse">
<stop stop-color="#D9F40C"/>
<stop offset="1" stop-color="#84E40F"/>
</linearGradient>
</defs>
</svg>
