<svg width="20" height="20" viewBox="0 0 20 20" fill="none" xmlns="http://www.w3.org/2000/svg">
<g id="fi_18371948">
<path id="Vector" d="M17.204 16.4982L13.7141 18.8968C12.6174 17.368 11.3101 15.2935 9.78116 12.6733C8.36041 15.4069 7.16111 17.4814 6.06983 18.8968L2.68256 16.4982C4.86512 13.7646 6.50738 11.9116 7.48517 11.0364C4.97855 10.5988 2.68256 10.0533 0.5 9.39959L1.80739 5.35853C4.86512 6.44981 7.05302 7.32505 8.46843 8.19475C8.1443 4.70487 7.92279 2.30086 7.92279 1.10156H12.0718C11.9637 2.95452 11.7477 5.35853 11.4181 8.19475C13.3846 7.21703 15.6752 6.23377 18.1872 5.46655L19.5 9.50748C17.0959 10.2747 14.6973 10.8203 12.4013 11.1445C13.3846 12.0196 15.0215 13.878 17.204 16.4982Z" fill="#C0E809"/>
</g>
</svg>
